<?xml version="1.0" encoding="UTF-8"?>
<svg version="1.1" xmlns="http://www.w3.org/2000/svg" width="125" height="118">
<path d="M0 0 C41.25 0 82.5 0 125 0 C125 38.94 125 77.88 125 118 C83.75 118 42.5 118 0 118 C0 79.06 0 40.12 0 0 Z " fill="#152C53" transform="translate(0,0)"/>
<path d="M0 0 C51 0 51 0 57 2 C57 2.99 57 3.98 57 5 C55.35 5.66 53.7 6.32 52 7 C51.7525 6.195625 51.505 5.39125 51.25 4.5625 C50.27761141 1.828919 50.27761141 1.828919 47.875 1.1875 C47.25625 1.125625 46.6375 1.06375 46 1 C46.495 3.475 46.495 3.475 47 6 C46.01 6 45.02 6 44 6 C44 6.66 44 7.32 44 8 C57.53 8 71.06 8 85 8 C85 8.99 85 9.98 85 11 C84.01 11 83.02 11 82 11 C82 11.66 82 12.32 82 13 C73.42 13 64.84 13 56 13 C56 13.66 56 14.32 56 15 C64.91 15 73.82 15 83 15 C83 15.33 83 15.66 83 16 C81.9805127 16.01981934 80.96102539 16.03963867 79.91064453 16.06005859 C76.13467352 16.13602808 72.35909227 16.22475809 68.58349609 16.31738281 C66.9481576 16.35570852 65.31273376 16.39055507 63.67724609 16.421875 C61.3287909 16.46744842 58.98092505 16.52545367 56.6328125 16.5859375 C55.53273361 16.60326431 55.53273361 16.60326431 54.41043091 16.62094116 C50.25022895 16.61868097 50.25022895 16.61868097 47 19 C45.00048828 19.48657227 45.00048828 19.48657227 42.5703125 19.81640625 C41.69246094 19.94080078 40.81460938 20.06519531 39.91015625 20.19335938 C38.99105469 20.31517578 38.07195313 20.43699219 37.125 20.5625 C35.31487259 20.8121286 33.50496706 21.06337256 31.6953125 21.31640625 C30.89109863 21.42412354 30.08688477 21.53184082 29.25830078 21.64282227 C27.10451972 21.98346894 25.07079476 22.31229583 23 23 C21.75732962 25.18428569 21.75732962 25.18428569 21 28 C20.66049316 28.95205322 20.32098633 29.90410645 19.97119141 30.88500977 C18.41652546 36.37826425 18.64202993 42.04826156 18.5859375 47.71484375 C18.56657135 48.92572159 18.5472052 50.13659943 18.5272522 51.38417053 C18.46767962 55.23520967 18.42115984 59.08627905 18.375 62.9375 C18.33679973 65.55535127 18.29774682 68.17319024 18.2578125 70.79101562 C18.16199634 77.19390094 18.07688382 83.59686086 18 90 C18.66 90 19.32 90 20 90 C20 90.99 20 91.98 20 93 C20.66 93 21.32 93 22 93 C22.495 93.99 22.495 93.99 23 95 C29.33862869 97.52035157 35.65551788 97.28959845 42.3984375 97.265625 C43.58797028 97.26753845 44.77750305 97.2694519 46.00308228 97.27142334 C48.5127992 97.27278093 51.02252324 97.26911431 53.53222656 97.26074219 C57.35497993 97.25005596 61.17726135 97.26064255 65 97.2734375 C67.44531353 97.27211546 69.89062677 97.26955215 72.3359375 97.265625 C74.03790787 97.27169769 74.03790787 97.27169769 75.77426147 97.27789307 C88.02415242 97.34738844 88.02415242 97.34738844 98.375 91.625 C99.00148438 91.03976563 99.62796875 90.45453125 100.2734375 89.8515625 C103.83844775 86.02845197 105.37095227 83.85296219 105.43237305 78.49707031 C105.45216721 77.39623108 105.47196136 76.29539185 105.49235535 75.16119385 C105.49874527 73.97878113 105.50513519 72.79636841 105.51171875 71.578125 C105.53864555 69.75544098 105.53864555 69.75544098 105.56611633 67.89593506 C105.62030858 64.01399203 105.6541447 60.13217259 105.6875 56.25 C105.72066508 53.61847235 105.75515397 50.98696103 105.79101562 48.35546875 C105.8760404 41.90375665 105.94435271 35.45202873 106 29 C106.99 29 107.98 29 109 29 C108.45144652 24.428721 107.58255197 20.32564205 106 16 C107.875 16.25 107.875 16.25 110 17 C110.309375 17.66 110.61875 18.32 110.9375 19 C111.288125 19.66 111.63875 20.32 112 21 C114.55519921 21.81171228 114.55519921 21.81171228 117 22 C116.75056641 20.96552734 116.75056641 20.96552734 116.49609375 19.91015625 C115.76370529 15.61386176 116.0346065 11.40261496 116.16015625 7.05859375 C116.18931098 3.71223662 116.18931098 3.71223662 114 0 C117.63 0 121.26 0 125 0 C125 38.94 125 77.88 125 118 C83.75 118 42.5 118 0 118 C0 79.06 0 40.12 0 0 Z " fill="#426794" transform="translate(0,0)"/>
<path d="M0 0 C1.06992187 -0.03738281 2.13984375 -0.07476563 3.2421875 -0.11328125 C6.125 0.3125 6.125 0.3125 7.89453125 1.91015625 C9.4308829 4.90969994 10.16618065 7.77999024 10.9375 11.0625 C12.33058515 16.69381082 14.03874733 22.0873551 16.125 27.5 C16.38007324 28.16523682 16.63514648 28.83047363 16.89794922 29.51586914 C17.40021429 30.82333494 17.90312838 32.13055162 18.40673828 33.4375 C19.49541032 36.27944469 20.5464886 39.13126192 21.5625 42 C22.05556641 43.36705078 22.05556641 43.36705078 22.55859375 44.76171875 C23.19476648 47.62668973 22.89856492 49.50643117 22.125 52.3125 C14.375 52.4375 14.375 52.4375 12.125 51.3125 C10.47511334 47.27944373 10.125 44.7775451 10.125 40.3125 C3.195 40.3125 -3.735 40.3125 -10.875 40.3125 C-10.875 41.9625 -10.875 43.6125 -10.875 45.3125 C-12.375 48.625 -12.375 48.625 -13.875 51.3125 C-16.845 51.3125 -19.815 51.3125 -22.875 51.3125 C-21.93552267 44.22933542 -20.53399264 37.76111068 -17.9453125 31.09765625 C-16.82217603 28.17504201 -15.84103888 25.22798599 -14.875 22.25 C-13.09065888 16.84077691 -11.04615229 11.57617594 -8.875 6.3125 C-8.52695312 5.41402344 -8.17890625 4.51554687 -7.8203125 3.58984375 C-6.0999634 -0.55463363 -4.32545382 0.09854151 0 0 Z " fill="#8DE9EF" transform="translate(48.875,31.6875)"/>
<path d="M0 0 C1.4800841 0.11362262 2.95910074 0.24122908 4.4375 0.375 C5.26121094 0.44460938 6.08492187 0.51421875 6.93359375 0.5859375 C7.61550781 0.72257813 8.29742188 0.85921875 9 1 C9.33 1.66 9.66 2.32 10 3 C8.98679687 3.47179687 8.98679687 3.47179687 7.953125 3.953125 C1.11537134 6.91435735 1.11537134 6.91435735 -4 12 C-4.3080265 14.75630612 -4.18602865 17.20957028 -4 20 C-3.01 18.02 -2.02 16.04 -1 14 C-0.34 14 0.32 14 1 14 C0.67592163 14.86679382 0.35184326 15.73358765 0.01794434 16.62664795 C-0.98366821 19.9458783 -1.26223309 22.52428171 -1.28710938 25.97363281 C-1.30052368 27.12792786 -1.31393799 28.2822229 -1.32775879 29.47149658 C-1.33303589 30.70293396 -1.33831299 31.93437134 -1.34375 33.203125 C-1.3583728 34.47726257 -1.37299561 35.75140015 -1.38806152 37.06414795 C-1.44240926 41.81797187 -1.47976202 46.57181493 -1.51568604 51.32580566 C-1.5518359 55.99339931 -1.60252225 60.66069363 -1.65625 65.328125 C-1.6615271 66.5676593 -1.6668042 67.8071936 -1.67224121 69.08428955 C-1.68565552 70.22597595 -1.69906982 71.36766235 -1.71289062 72.54394531 C-1.72018188 73.55177063 -1.72747314 74.55959595 -1.73498535 75.59796143 C-2 78 -2 78 -4 80 C-7.125 80.125 -7.125 80.125 -10 80 C-10.33 81.32 -10.66 82.64 -11 84 C-12.65 84 -14.3 84 -16 84 C-16 61.23 -16 38.46 -16 15 C-14.68 15 -13.36 15 -12 15 C-12.66 12.36 -13.32 9.72 -14 7 C-11.03 8.98 -11.03 8.98 -8 11 C-8 10.01 -8 9.02 -8 8 C-5.36 7.34 -2.72 6.68 0 6 C0 4.02 0 2.04 0 0 Z " fill="#579BC0" transform="translate(16,9)"/>
<path d="M0 0 C3.875 1.75 3.875 1.75 5 4 C5.09189837 5.43182823 5.12193458 6.86786948 5.12025452 8.30264282 C5.12162918 9.20570663 5.12300385 10.10877045 5.12442017 11.03919983 C5.11902725 12.52920753 5.11902725 12.52920753 5.11352539 14.04931641 C5.11367142 15.09324051 5.11381744 16.13716461 5.1139679 17.21272278 C5.11326922 20.67569023 5.10547891 24.1386044 5.09765625 27.6015625 C5.09579191 29.99767019 5.09436808 32.39377827 5.09336853 34.78988647 C5.08954461 41.10608975 5.07971538 47.42227014 5.06866455 53.73846436 C5.05665243 61.31169156 5.05204759 68.8849264 5.04621124 76.4581604 C5.03650358 87.97212286 5.01734611 99.48603509 5 111 C-12.16 111 -29.32 111 -47 111 C-47 109.68 -47 108.36 -47 107 C-43.77208445 104.8480563 -42.71599191 104.79913557 -39 105 C-38.67 106.32 -38.34 107.64 -38 109 C-34.87802522 107.6910428 -34.87802522 107.6910428 -33 105 C-29.66554777 104.68243312 -26.3519287 104.61991485 -23.00390625 104.5390625 C-21.51697266 104.27222656 -21.51697266 104.27222656 -20 104 C-18.61129034 102.17576044 -18.61129034 102.17576044 -18 100 C-15.41987161 96.35223227 -13.06792256 93.92691069 -9 92 C-8.01 92.495 -8.01 92.495 -7 93 C-7 92.34 -7 91.68 -7 91 C-5.68 91 -4.36 91 -3 91 C-0.42155204 87.12610575 -0.69326085 83.03895491 -0.68115234 78.55957031 C-0.66608391 77.2858532 -0.66608391 77.2858532 -0.65071106 75.98640442 C-0.61985527 73.18365141 -0.60283725 70.38099403 -0.5859375 67.578125 C-0.56722778 65.63327205 -0.54765452 63.68842724 -0.5272522 61.74359131 C-0.47590429 56.62759189 -0.43629274 51.51156614 -0.39910889 46.39544678 C-0.35908596 41.17372104 -0.3079858 35.95210507 -0.2578125 30.73046875 C-0.1610217 20.48705624 -0.07662695 10.2435818 0 0 Z " fill="#1A2650" transform="translate(120,7)"/>
<path d="M0 0 C3.63 0 7.26 0 11 0 C11 3.63 11 7.26 11 11 C10.67 10.34 10.34 9.68 10 9 C9.01 8.67 8.02 8.34 7 8 C6.99413376 9.0685321 6.98826752 10.13706421 6.98222351 11.23797607 C6.92503666 21.30272138 6.85229622 31.36724978 6.76428509 41.43177414 C6.71953746 46.606193 6.680291 51.78053232 6.65356445 56.95507812 C6.62757533 61.94782959 6.58720407 66.9402757 6.53681374 71.93283844 C6.52011528 73.83859716 6.50861959 75.74440873 6.50238609 77.65023041 C6.49277736 80.31760246 6.46475718 82.98418803 6.43237305 85.65136719 C6.43380814 86.4411496 6.43524323 87.23093201 6.4367218 88.04464722 C6.38171951 91.24312968 6.17917704 93.64617186 4.72297668 96.52178955 C3 98 3 98 -1 98 C-1 98.66 -1 99.32 -1 100 C-3.49064888 100.68707555 -5.37886292 101 -8 101 C-6.99088542 99.30729167 -5.98177083 97.61458333 -4.97265625 95.921875 C-2.9815531 91.98764709 -2.86663366 88.31899513 -2.83886719 83.94970703 C-2.82925964 82.72808868 -2.8196521 81.50647034 -2.80975342 80.24783325 C-2.8033786 78.27277298 -2.8033786 78.27277298 -2.796875 76.2578125 C-2.79111838 74.8878479 -2.78536072 73.5178833 -2.77960205 72.1479187 C-2.76911151 69.27813341 -2.763256 66.40837597 -2.75976562 63.53857422 C-2.75428223 59.87119623 -2.73024972 56.20418973 -2.70179367 52.53692818 C-2.6831208 49.70753927 -2.67795925 46.8782391 -2.67642975 44.04879379 C-2.67195242 42.04250535 -2.65333071 40.0362645 -2.63446045 38.03005981 C-2.63746155 36.80213715 -2.64046265 35.57421448 -2.64355469 34.30908203 C-2.63990906 33.23304718 -2.63626343 32.15701233 -2.63250732 31.04837036 C-3.06091045 27.49474476 -4.28203465 25.11793785 -6 22 C-6.69971973 20.01132287 -7.37664397 18.01391949 -8 16 C-6.125 16.25 -6.125 16.25 -4 17 C-3.690625 17.66 -3.38125 18.32 -3.0625 19 C-2.711875 19.66 -2.36125 20.32 -2 21 C0.55519921 21.81171228 0.55519921 21.81171228 3 22 C2.83371094 21.31035156 2.66742188 20.62070312 2.49609375 19.91015625 C1.76370529 15.61386176 2.0346065 11.40261496 2.16015625 7.05859375 C2.18931098 3.71223662 2.18931098 3.71223662 0 0 Z " fill="#35547D" transform="translate(114,0)"/>
<path d="M0 0 C8.16230905 -0.09264072 16.32439882 -0.16373412 24.48710346 -0.20724869 C28.27731698 -0.22813259 32.06717109 -0.25646381 35.85717773 -0.30175781 C39.51412174 -0.34518858 43.17071986 -0.36913106 46.82790184 -0.37950897 C48.2238122 -0.38690548 49.61970341 -0.40134928 51.01546669 -0.42292023 C52.96886389 -0.45191117 54.92260844 -0.45363352 56.8762207 -0.45410156 C58.5450103 -0.46742523 58.5450103 -0.46742523 60.24751282 -0.48101807 C63 0 63 0 64.8614502 1.89672852 C66.14588731 4.26950128 66.3503939 5.6482848 66.29296875 8.328125 C66.28330078 9.12734375 66.27363281 9.9265625 66.26367188 10.75 C66.23853516 11.575 66.21339844 12.4 66.1875 13.25 C66.16719727 14.51070312 66.16719727 14.51070312 66.14648438 15.796875 C66.11123464 17.86485938 66.0574302 19.93251271 66 22 C62.40060205 21.46874558 61.28094172 21.29612776 58.6875 18.5625 C57 16 57 16 57 14 C56.27296875 14.21269531 55.5459375 14.42539063 54.796875 14.64453125 C51.38488551 15.07817796 50.1886461 14.3921068 47.25 12.6875 C39.7285503 8.34149678 31.89872182 7.69843875 23.37109375 7.8046875 C22.49598648 7.8075174 21.62087921 7.81034729 20.71925354 7.81326294 C17.95852245 7.82434606 15.19813095 7.84942743 12.4375 7.875 C10.55143702 7.88504518 8.66536889 7.89416832 6.77929688 7.90234375 C2.18606957 7.92424632 -2.40690789 7.95869236 -7 8 C-7 7.34 -7 6.68 -7 6 C-6.34 5.67 -5.68 5.34 -5 5 C-5 3.68 -5 2.36 -5 1 C-3.35 1.33 -1.7 1.66 0 2 C0 2.66 0 3.32 0 4 C1.7763932 5.0745356 1.7763932 5.0745356 3 5 C3.99 5 4.98 5 6 5 C5.67 4.01 5.34 3.02 5 2 C3.35 1.67 1.7 1.34 0 1 C0 0.67 0 0.34 0 0 Z " fill="#2E4B78" transform="translate(51,0)"/>
<path d="M0 0 C0 0.99 0 1.98 0 3 C-1.33333333 4.33333333 -2.66666667 5.66666667 -4 7 C-4 7.99 -4 8.98 -4 10 C-5.7699868 10.19532961 -7.54104279 10.38098882 -9.3125 10.5625 C-10.79169922 10.71912109 -10.79169922 10.71912109 -12.30078125 10.87890625 C-15 11 -15 11 -18 10 C-18.66 11.32 -19.32 12.64 -20 14 C-20.99 14 -21.98 14 -23 14 C-23 13.34 -23 12.68 -23 12 C-27.53140653 11.06619039 -27.53140653 11.06619039 -32 12 C-32 13.32 -32 14.64 -32 16 C-54.77 16 -77.54 16 -101 16 C-100.34 15.34 -99.68 14.68 -99 14 C-99.66 13.67 -100.32 13.34 -101 13 C-101 12.34 -101 11.68 -101 11 C-97.94736336 10.01879536 -96.05263664 10.01879536 -93 11 C-93.33 10.01 -93.66 9.02 -94 8 C-91.02148438 8.04882812 -91.02148438 8.04882812 -88.04296875 8.09765625 C-85.79694539 8.08263217 -85.79694539 8.08263217 -83 7 C-83 7.99 -83 8.98 -83 10 C-82.21625 9.67 -81.4325 9.34 -80.625 9 C-76.00638131 7.72589829 -71.75750644 7.83076064 -67 8 C-67 8.66 -67 9.32 -67 10 C-66.01 10 -65.02 10 -64 10 C-64 9.34 -64 8.68 -64 8 C-64.66 7.67 -65.32 7.34 -66 7 C-63.11788698 6.03929566 -61.30149956 5.89418117 -58.3125 5.9375 C-57.10013672 5.95103516 -57.10013672 5.95103516 -55.86328125 5.96484375 C-54.94095703 5.98224609 -54.94095703 5.98224609 -54 6 C-54 6.33 -54 6.66 -54 7 C-41.61922367 7.11522956 -29.3502912 6.89587605 -17 6 C-19.97 5.67 -22.94 5.34 -26 5 C-26 4.67 -26 4.34 -26 4 C-25.08504761 3.97812622 -25.08504761 3.97812622 -24.15161133 3.95581055 C-21.37128936 3.88105225 -18.59213176 3.78448518 -15.8125 3.6875 C-14.85279297 3.66494141 -13.89308594 3.64238281 -12.90429688 3.61914062 C-5.98046314 3.35930525 -5.98046314 3.35930525 0 0 Z " fill="#4A658F" transform="translate(105,102)"/>
<path d="M0 0 C7.15348157 -0.04595384 14.30644928 -0.08576765 21.45996094 -0.10986328 C23.8925958 -0.11991013 26.32521862 -0.13354994 28.7578125 -0.15087891 C32.25784277 -0.17518467 35.75771312 -0.18649644 39.2578125 -0.1953125 C40.34240753 -0.20563507 41.42700256 -0.21595764 42.54446411 -0.22659302 C47.75921599 -0.22736486 52.12945687 -0.12305726 57 2 C57 2.99 57 3.98 57 5 C55.35 5.66 53.7 6.32 52 7 C51.7525 6.195625 51.505 5.39125 51.25 4.5625 C50.27761141 1.828919 50.27761141 1.828919 47.875 1.1875 C47.25625 1.125625 46.6375 1.06375 46 1 C46.495 3.475 46.495 3.475 47 6 C46.01 6 45.02 6 44 6 C43.67 6.66 43.34 7.32 43 8 C41.68 7.67 40.36 7.34 39 7 C39 6.34 39 5.68 39 5 C37.35 5 35.7 5 34 5 C34.020625 5.969375 34.04125 6.93875 34.0625 7.9375 C34 11 34 11 33 12 C31.33382885 12.04063832 29.66611905 12.042721 28 12 C28.33 10.02 28.66 8.04 29 6 C27.35 6 25.7 6 24 6 C24 6.66 24 7.32 24 8 C24.66 8 25.32 8 26 8 C26 8.66 26 9.32 26 10 C22.7 9.67 19.4 9.34 16 9 C16 10.98 16 12.96 16 15 C14.35 15.33 12.7 15.66 11 16 C10.67 16.99 10.34 17.98 10 19 C10 18.34 10 17.68 10 17 C9.34 17 8.68 17 8 17 C8 17.99 8 18.98 8 20 C6.68 19.34 5.36 18.68 4 18 C4 18.33 4 18.66 4 19 C4 20.66666667 4 22.33333333 4 24 C2.68 24 1.36 24 0 24 C0 16.08 0 8.16 0 0 Z " fill="#4072A8" transform="translate(0,0)"/>
<path d="M0 0 C1.32547852 0.07831055 1.32547852 0.07831055 2.67773438 0.15820312 C4.84800408 0.28724619 7.01780693 0.42409956 9.1875 0.5625 C9.1875 1.5525 9.1875 2.5425 9.1875 3.5625 C6.75362247 4.77943876 4.76911154 4.88209896 2.0625 5.125 C1.15242188 5.20878906 0.24234375 5.29257812 -0.6953125 5.37890625 C-1.74332031 5.46978516 -1.74332031 5.46978516 -2.8125 5.5625 C-5.22633052 10.99727598 -7.25325692 16.50350492 -9.1875 22.125 C-9.80176404 23.89464211 -10.41634942 25.66417272 -11.03125 27.43359375 C-11.33160156 28.29968262 -11.63195313 29.16577148 -11.94140625 30.05810547 C-13.17560716 33.60643308 -14.42685041 37.14849383 -15.6875 40.6875 C-16.27144531 42.33105469 -16.27144531 42.33105469 -16.8671875 44.0078125 C-17.8125 46.5625 -17.8125 46.5625 -18.8125 48.5625 C-19.4725 48.5625 -20.1325 48.5625 -20.8125 48.5625 C-20.8125 45.2625 -20.8125 41.9625 -20.8125 38.5625 C-21.4725 38.5625 -22.1325 38.5625 -22.8125 38.5625 C-22.72871094 37.99402344 -22.64492188 37.42554688 -22.55859375 36.83984375 C-21.89508559 31.80894008 -21.97257732 27.60203607 -22.8125 22.5625 C-22.88772969 20.23037973 -22.90575876 17.8939689 -22.8125 15.5625 C-22.4825 15.2325 -22.1525 14.9025 -21.8125 14.5625 C-21.750625 13.53125 -21.68875 12.5 -21.625 11.4375 C-20.62574972 6.67184481 -18.65977589 3.575632 -14.8125 0.5625 C-10.0603234 -1.08077602 -4.93523009 -0.32018271 0 0 Z " fill="#091A42" transform="translate(45.8125,27.4375)"/>
<path d="M0 0 C0.721875 0.00257812 1.44375 0.00515625 2.1875 0.0078125 C2.909375 0.00523438 3.63125 0.00265625 4.375 0 C6.1875 0.1328125 6.1875 0.1328125 7.1875 1.1328125 C7.28076716 2.69828298 7.30495582 4.26794022 7.30102539 5.83618164 C7.30094986 6.83714371 7.30087433 7.83810577 7.30079651 8.86940002 C7.29563522 9.9579277 7.29047394 11.04645538 7.28515625 12.16796875 C7.2837413 13.27635605 7.28232635 14.38474335 7.28086853 15.52671814 C7.27525033 19.08294319 7.26269475 22.63910633 7.25 26.1953125 C7.24498734 28.59960847 7.24042403 31.00390542 7.23632812 33.40820312 C7.22527499 39.31643027 7.20799816 45.22461087 7.1875 51.1328125 C3.8875 51.1328125 0.5875 51.1328125 -2.8125 51.1328125 C-2.83714156 44.03035742 -2.855332 36.92792699 -2.86743164 29.82543945 C-2.87247349 27.40714078 -2.87930678 24.98884517 -2.88793945 22.57055664 C-2.90001157 19.10301967 -2.90572963 15.63552284 -2.91015625 12.16796875 C-2.91531754 11.07944107 -2.92047882 9.99091339 -2.92579651 8.86940002 C-2.92587204 7.86843796 -2.92594757 6.86747589 -2.92602539 5.83618164 C-2.928246 4.95015762 -2.93046661 4.06413361 -2.93275452 3.15126038 C-2.77798278 0.55344789 -2.60037713 0.19054488 0 0 Z " fill="#94EBF4" transform="translate(81.8125,31.8671875)"/>
<path d="M0 0 C0 2.62113708 -0.31292445 4.50935112 -1 7 C0.65 6.67 2.3 6.34 4 6 C4.33 4.02 4.66 2.04 5 0 C6.65 0 8.3 0 10 0 C9.49396008 2.16874252 9.00016187 3.99967627 8 6 C8.70213623 5.67402832 9.40427246 5.34805664 10.12768555 5.01220703 C13.27576078 3.90282157 15.62921507 3.77055605 18.95703125 3.8046875 C20.06884766 3.81113281 21.18066406 3.81757813 22.32617188 3.82421875 C24.0519043 3.84935547 24.0519043 3.84935547 25.8125 3.875 C26.98232422 3.88402344 28.15214844 3.89304687 29.35742188 3.90234375 C32.23849053 3.92586268 35.11913989 3.95873148 38 4 C36 6 36 6 33.75 6.16015625 C32.38875 6.11181641 32.38875 6.11181641 31 6.0625 C25.59173279 5.95533486 20.36488832 6.3482999 15 7 C15.66 7.33 16.32 7.66 17 8 C17 8.66 17 9.32 17 10 C16.236875 9.979375 15.47375 9.95875 14.6875 9.9375 C11.89814214 9.87057159 11.89814214 9.87057159 9 11 C7.7625 11.12375 6.525 11.2475 5.25 11.375 C-0.43717479 12.07415727 -4.59407479 13.71632916 -8.875 17.625 C-13.39788314 24.80840263 -12.13447047 34.66035932 -12.09765625 42.91015625 C-12.09553383 44.72222816 -12.09553383 44.72222816 -12.09336853 46.57090759 C-12.08780395 50.40146437 -12.07525803 54.23196111 -12.0625 58.0625 C-12.05748042 60.67122311 -12.05291832 63.27994714 -12.04882812 65.88867188 C-12.03784613 72.25913481 -12.02114354 78.62956311 -12 85 C-12.99 84.34 -13.98 83.68 -15 83 C-15.38095093 80.55999756 -15.38095093 80.55999756 -15.38818359 77.45214844 C-15.39764008 76.29044128 -15.40709656 75.12873413 -15.4168396 73.93182373 C-15.41076691 72.67041565 -15.40469421 71.40900757 -15.3984375 70.109375 C-15.40130768 68.81686829 -15.40417786 67.52436157 -15.40713501 66.19268799 C-15.41156303 63.45208014 -15.40511663 60.71176523 -15.39111328 57.97119141 C-15.37408815 54.46958731 -15.38381614 50.96867643 -15.40183067 47.46709824 C-15.41533246 44.11863626 -15.40585129 40.77035663 -15.3984375 37.421875 C-15.40451019 36.16856384 -15.41058289 34.91525269 -15.4168396 33.6239624 C-15.40738312 32.44964661 -15.39792664 31.27533081 -15.38818359 30.06542969 C-15.38579681 29.0366571 -15.38341003 28.00788452 -15.38095093 26.94793701 C-14.93278071 23.47983264 -13.70571026 21.0293403 -12 18 C-15.01327566 19.50663783 -15.61056618 22.03166411 -17 25 C-17.93203491 21.85438218 -18.6184602 19.24691603 -18 16 C-14.93836645 12.48411815 -11.19470188 10.02008156 -7.125 7.8125 C-3.73448856 6.30677143 -3.73448856 6.30677143 -3 3 C-3.66 3 -4.32 3 -5 3 C-5 2.34 -5 1.68 -5 1 C-3.35 0.67 -1.7 0.34 0 0 Z " fill="#4D84B3" transform="translate(29,5)"/>
<path d="M0 0 C0.66 0 1.32 0 2 0 C3.7892134 3.85345749 4.25635758 6.89715606 4.2746582 11.13208008 C4.28419022 12.34716751 4.29372223 13.56225494 4.30354309 14.81416321 C4.30263168 16.11943466 4.30172028 17.42470612 4.30078125 18.76953125 C4.30467277 20.13327667 4.30900837 21.49702088 4.31376648 22.86076355 C4.32121536 25.71621634 4.32094787 28.57154547 4.31567383 31.42700195 C4.30989141 35.06840671 4.32678634 38.70930079 4.3500185 42.35062122 C4.36482556 45.16724051 4.36561796 47.98373892 4.36250877 50.80039024 C4.36326525 52.78994872 4.37708637 54.77948856 4.39118958 56.76899719 C4.34957098 64.95097057 3.99874901 72.74043582 -2 79 C-2.66 79 -3.32 79 -4 79 C-2.98187755 76.9637551 -1.96530388 74.93639045 -0.875 72.9375 C0.20579336 70.89863452 0.20579336 70.89863452 0 68 C-0.66 68 -1.32 68 -2 68 C-2 47.54 -2 27.08 -2 6 C-1.01 6 -0.02 6 1 6 C0.67 4.02 0.34 2.04 0 0 Z " fill="#5180A8" transform="translate(108,23)"/>
<path d="M0 0 C1.66666667 0 3.33333333 0 5 0 C6.00013174 4.14241416 6.11516542 8.01480304 6.09765625 12.26953125 C6.0962413 12.95053391 6.09482635 13.63153656 6.09336853 14.33317566 C6.08780298 16.49299647 6.07525703 18.65271089 6.0625 20.8125 C6.05748054 22.28320162 6.05291841 23.75390488 6.04882812 25.22460938 C6.03784488 28.8164404 6.02060422 32.4082098 6 36 C4.35 36.66 2.7 37.32 1 38 C1 41.96 1 45.92 1 50 C0.34 50 -0.32 50 -1 50 C-1 45.05 -1 40.1 -1 35 C-1.99 35 -2.98 35 -4 35 C-4 24.44 -4 13.88 -4 3 C-3.01 3 -2.02 3 -1 3 C-0.67 2.01 -0.34 1.02 0 0 Z " fill="#70CFE2" transform="translate(4,38)"/>
<path d="M0 0 C0.92683594 0.00451172 1.85367188 0.00902344 2.80859375 0.01367188 C5.08079709 0.02538426 7.35286388 0.04178628 9.625 0.0625 C9.625 0.3925 9.625 0.7225 9.625 1.0625 C4.63203967 2.25222883 -0.38535871 2.36027679 -5.4921875 2.4921875 C-11.1342999 2.74767938 -14.41077032 4.09827032 -18.375 8.0625 C-20.80361489 14.99896499 -20.64800496 21.84969857 -20.58081055 29.14160156 C-20.56272607 31.16224081 -20.56030045 33.18241367 -20.56054688 35.203125 C-20.52238884 43.86923882 -20.10638414 52.42896887 -19.375 61.0625 C-18.715 59.0825 -18.055 57.1025 -17.375 55.0625 C-16.25 58.8125 -16.25 58.8125 -17.375 61.0625 C-14.405 61.0625 -11.435 61.0625 -8.375 61.0625 C-8.375 61.3925 -8.375 61.7225 -8.375 62.0625 C-11.015 62.3925 -13.655 62.7225 -16.375 63.0625 C-16.045 63.3925 -15.715 63.7225 -15.375 64.0625 C-15.09278828 66.64272142 -14.92679803 69.22280185 -14.75390625 71.8125 C-14.62886719 72.555 -14.50382812 73.2975 -14.375 74.0625 C-13.715 74.3925 -13.055 74.7225 -12.375 75.0625 C-14.375 76.0625 -14.375 76.0625 -16.82640076 75.43231201 C-21.55764674 72.88937883 -22.81831178 67.98079874 -24.375 63.0625 C-24.97633109 59.25841003 -25.01092042 55.57929869 -24.93359375 51.734375 C-24.93126236 50.70113098 -24.92893097 49.66788696 -24.92652893 48.60333252 C-24.91685999 46.43859494 -24.89523366 44.27387998 -24.86206055 42.109375 C-24.81241594 38.80690828 -24.80055723 35.5059324 -24.79492188 32.203125 C-24.78084176 30.0885259 -24.76463948 27.97393965 -24.74609375 25.859375 C-24.74073105 24.88007019 -24.73536835 23.90076538 -24.72984314 22.89178467 C-24.61186976 16.0663465 -24.2653707 9.60126582 -19.625 4.1875 C-19.15578125 3.61257812 -18.6865625 3.03765625 -18.203125 2.4453125 C-13.34645759 -1.22832054 -5.81773371 -0.05394475 0 0 Z " fill="#1C3866" transform="translate(43.375,21.9375)"/>
<path d="M0 0 C0.33 0 0.66 0 1 0 C1 29.37 1 58.74 1 89 C-0.98 89.99 -0.98 89.99 -3 91 C-3 67.24 -3 43.48 -3 19 C-2.34 19 -1.68 19 -1 19 C-0.67 12.73 -0.34 6.46 0 0 Z " fill="#50779F" transform="translate(118,4)"/>
<path d="M0 0 C0.66 0.66 1.32 1.32 2 2 C1.34 3.32 0.68 4.64 0 6 C-0.66 6 -1.32 6 -2 6 C-2.33 7.65 -2.66 9.3 -3 11 C-0.36 9.02 2.28 7.04 5 5 C2.98127747 9.03744506 0.91899872 11.62010675 -2 15 C-0.35 14.67 1.3 14.34 3 14 C2.02416992 16.46948242 2.02416992 16.46948242 0 19 C-2.98972707 19.45411351 -5.40495783 19.58521264 -8.38671875 19.48828125 C-9.20372757 19.48120651 -10.02073639 19.47413177 -10.86250305 19.46684265 C-13.47176737 19.43885512 -16.0788846 19.37611306 -18.6875 19.3125 C-20.45634921 19.28742256 -22.22523207 19.26460842 -23.99414062 19.24414062 C-28.33025424 19.18901471 -32.66476315 19.10271575 -37 19 C-37 17.68 -37 16.36 -37 15 C-33.77208445 12.8480563 -32.71599191 12.79913557 -29 13 C-28.67 14.32 -28.34 15.64 -28 17 C-24.87802522 15.6910428 -24.87802522 15.6910428 -23 13 C-19.66554777 12.68243312 -16.3519287 12.61991485 -13.00390625 12.5390625 C-11.51697266 12.27222656 -11.51697266 12.27222656 -10 12 C-8.61599438 10.17474383 -8.61599438 10.17474383 -8 8 C-5.62517119 4.75440063 -3.33117819 2.26044234 0 0 Z " fill="#21315D" transform="translate(110,99)"/>
<path d="M0 0 C15.18 0.33 30.36 0.66 46 1 C46 1.99 46 2.98 46 4 C45.01 4 44.02 4 43 4 C43 4.66 43 5.32 43 6 C34.42 6 25.84 6 17 6 C17 6.66 17 7.32 17 8 C25.91 8 34.82 8 44 8 C44 8.33 44 8.66 44 9 C42.81446533 9.02505615 41.62893066 9.0501123 40.4074707 9.07592773 C35.99981282 9.17025532 31.59230322 9.27041377 27.18481445 9.37231445 C25.27892532 9.41556753 23.37299983 9.45724925 21.46704102 9.49731445 C18.72400979 9.55525071 15.98115987 9.6188774 13.23828125 9.68359375 C12.38913651 9.70030624 11.53999176 9.71701874 10.66511536 9.73423767 C6.64155618 9.83449444 2.94430054 10.13585951 -1 11 C-3.3125 10.5625 -3.3125 10.5625 -5 10 C-5 9.34 -5 8.68 -5 8 C-4.05125 8.020625 -3.1025 8.04125 -2.125 8.0625 C0.90666283 8.22551826 0.90666283 8.22551826 3 7 C5.125 7.4375 5.125 7.4375 7 8 C7 7.34 7 6.68 7 6 C6.01 5.67 5.02 5.34 4 5 C5.66342837 3.33657163 7.7825709 3.63951903 10.0625 3.4375 C11.44115234 3.31181641 11.44115234 3.31181641 12.84765625 3.18359375 C13.55792969 3.12300781 14.26820312 3.06242188 15 3 C13.10424749 2.97278824 11.20838021 2.95350864 9.3125 2.9375 C8.25675781 2.92589844 7.20101562 2.91429687 6.11328125 2.90234375 C3.27589738 2.99134575 0.7561081 3.35060162 -2 4 C-1.34 2.68 -0.68 1.36 0 0 Z " fill="#496D9A" transform="translate(39,7)"/>
<path d="M0 0 C1.18797432 0.00212242 1.18797432 0.00212242 2.39994812 0.00428772 C4.91641094 0.00986168 7.43278306 0.02240932 9.94921875 0.03515625 C11.660806 0.04017462 13.37239466 0.04473694 15.08398438 0.04882812 C19.26826383 0.05982257 23.45247594 0.07706918 27.63671875 0.09765625 C27.63671875 1.08765625 27.63671875 2.07765625 27.63671875 3.09765625 C30.27671875 3.09765625 32.91671875 3.09765625 35.63671875 3.09765625 C38.05248981 14.3428229 37.94297037 25.54676865 37.89746094 36.99414062 C37.88662716 40.25018442 37.89746409 43.50569049 37.91015625 46.76171875 C37.90883657 48.83463663 37.90627816 50.90755418 37.90234375 52.98046875 C37.90639221 53.95227081 37.91044067 54.92407288 37.91461182 55.92532349 C37.90515533 57.27350662 37.90515533 57.27350662 37.89550781 58.64892578 C37.89391663 59.43800323 37.89232544 60.22708069 37.89068604 61.04006958 C37.63671875 63.09765625 37.63671875 63.09765625 35.63671875 66.09765625 C35.07421875 64.16015625 35.07421875 64.16015625 34.63671875 62.09765625 C34.96671875 61.76765625 35.29671875 61.43765625 35.63671875 61.09765625 C35.75034843 58.03022778 35.80091107 54.9861748 35.8046875 51.91796875 C35.8080159 50.99426483 35.8113443 50.07056091 35.81477356 49.11886597 C35.81984733 47.16014099 35.82218175 45.20140733 35.82202148 43.24267578 C35.82420441 40.24236804 35.84234549 37.24242992 35.86132812 34.2421875 C35.86426263 32.34244918 35.86624704 30.4427091 35.8671875 28.54296875 C35.87796577 27.19285202 35.87796577 27.19285202 35.88896179 25.81546021 C35.88434685 24.55933426 35.88434685 24.55933426 35.87963867 23.27783203 C35.88106369 22.54138458 35.88248871 21.80493713 35.88395691 21.0461731 C35.74266143 18.77388797 35.74266143 18.77388797 33.63671875 16.09765625 C33.44140625 13.3984375 33.44140625 13.3984375 33.51171875 10.41015625 C33.52976562 9.41628906 33.5478125 8.42242187 33.56640625 7.3984375 C33.58960937 6.63917969 33.6128125 5.87992188 33.63671875 5.09765625 C32.31671875 5.09765625 30.99671875 5.09765625 29.63671875 5.09765625 C29.30671875 5.75765625 28.97671875 6.41765625 28.63671875 7.09765625 C28.63671875 6.10765625 28.63671875 5.11765625 28.63671875 4.09765625 C20.82219123 4.07239062 13.00767417 4.0548252 5.19311523 4.04272461 C2.53230394 4.03768242 -0.12850457 4.03084889 -2.78930664 4.0222168 C-6.60433641 4.01014616 -10.41932969 4.00442696 -14.234375 4 C-15.43227158 3.99483871 -16.63016815 3.98967743 -17.86436462 3.98435974 C-18.96543045 3.98428421 -20.06649628 3.98420868 -21.20092773 3.98413086 C-22.17577621 3.98191025 -23.15062469 3.97968964 -24.15501404 3.97740173 C-26.33800241 3.8498404 -26.33800241 3.8498404 -27.36328125 5.09765625 C-29.36286489 5.13846408 -31.36373379 5.14019981 -33.36328125 5.09765625 C-32.36328125 3.09765625 -32.36328125 3.09765625 -29.36328125 2.09765625 C-26.73500817 1.89329808 -24.120176 1.72569437 -21.48828125 1.59765625 C-16.27874193 1.3986927 -16.27874193 1.3986927 -11.14331055 0.58618164 C-7.42554979 -0.06712821 -3.76078704 -0.02548481 0 0 Z M33.63671875 66.09765625 C34.29671875 66.42765625 34.95671875 66.75765625 35.63671875 67.09765625 C35.30671875 67.75765625 34.97671875 68.41765625 34.63671875 69.09765625 C32.57421875 69.72265625 32.57421875 69.72265625 30.63671875 70.09765625 C30.63671875 69.43765625 30.63671875 68.77765625 30.63671875 68.09765625 C31.62671875 67.43765625 32.61671875 66.77765625 33.63671875 66.09765625 Z " fill="#1C3762" transform="translate(61.36328125,21.90234375)"/>
<path d="M0 0 C0.495 0.99 0.495 0.99 1 2 C-0.3125 4 -0.3125 4 -2 6 C-2.99 6 -3.98 6 -5 6 C-5 5.34 -5 4.68 -5 4 C-9.53140653 3.06619039 -9.53140653 3.06619039 -14 4 C-14 5.32 -14 6.64 -14 8 C-24.23 8 -34.46 8 -45 8 C-45 7.01 -45 6.02 -45 5 C-44.01 5 -43.02 5 -42 5 C-42 4.34 -42 3.68 -42 3 C-42.66 3 -43.32 3 -44 3 C-44 2.34 -44 1.68 -44 1 C-35.42 1 -26.84 1 -18 1 C-18 1.66 -18 2.32 -18 3 C-17.34 3 -16.68 3 -16 3 C-16 2.34 -16 1.68 -16 1 C-8.08 0.505 -8.08 0.505 0 0 Z " fill="#2F446B" transform="translate(87,110)"/>
<path d="M0 0 C0.33 0 0.66 0 1 0 C1 1.65 1 3.3 1 5 C1.99 5 2.98 5 4 5 C4.33 4.01 4.66 3.02 5 2 C9.06671495 6.06671495 9.25525237 10.35935109 9.265625 15.91796875 C9.26753845 16.57525467 9.2694519 17.23254059 9.27142334 17.90974426 C9.27277942 19.29733667 9.26912336 20.68494201 9.26074219 22.07250977 C9.25011999 24.16387551 9.26061175 26.25436536 9.2734375 28.34570312 C9.27954081 35.0649516 9.04390207 41.4640348 7.44091797 48.0144043 C6.8458198 50.69432313 6.85624575 53.26866916 7 56 C5.515 56.495 5.515 56.495 4 57 C4 56.34 4 55.68 4 55 C3.01 55 2.02 55 1 55 C0.89163547 53.56416999 0.81423833 52.1259798 0.75 50.6875 C0.70359375 49.88699219 0.6571875 49.08648437 0.609375 48.26171875 C0.73828125 47.51535156 0.8671875 46.76898438 1 46 C1.66 45.62230469 2.32 45.24460938 3 44.85546875 C5.38006816 43.04494884 5.38006816 43.04494884 5.45410156 39.4465332 C5.45346954 37.98112992 5.43094239 36.51562994 5.390625 35.05078125 C5.38496521 34.27816452 5.37930542 33.50554779 5.37347412 32.70951843 C5.35109327 30.24321371 5.30089703 27.77836508 5.25 25.3125 C5.22993706 23.63999495 5.21168592 21.96746711 5.1953125 20.29492188 C5.15122331 16.19605404 5.08218675 12.09827383 5 8 C3.68 8.99 2.36 9.98 1 11 C0.67 10.34 0.34 9.68 0 9 C-0.33 9.66 -0.66 10.32 -1 11 C-1.99 11 -2.98 11 -4 11 C-4 9.02 -4 7.04 -4 5 C-3.01 5 -2.02 5 -1 5 C-0.67 3.35 -0.34 1.7 0 0 Z " fill="#5FABCC" transform="translate(4,30)"/>
<path d="M0 0 C0.75428787 -0.00131927 1.50857574 -0.00263855 2.28572083 -0.0039978 C4.72177323 -0.00590357 7.15770942 0.00039603 9.59375 0.0078125 C10.41934418 0.00869873 11.24493835 0.00958496 12.09555054 0.01049805 C25.1165196 0.02695845 38.09528632 0.32311955 51.09375 1.1328125 C51.58875 2.1228125 51.58875 2.1228125 52.09375 3.1328125 C53.08375 3.7928125 54.07375 4.4528125 55.09375 5.1328125 C52.78375 5.1328125 50.47375 5.1328125 48.09375 5.1328125 C48.09375 4.1428125 48.09375 3.1528125 48.09375 2.1328125 C40.24645085 2.22531595 32.39945399 2.33265224 24.55249023 2.45019531 C21.88420663 2.48948839 19.2160142 2.52328871 16.54760742 2.5546875 C12.70733618 2.60046462 8.8674109 2.65843949 5.02734375 2.71875 C3.83854111 2.73030121 2.64973846 2.74185242 1.4249115 2.75375366 C-8.24202013 2.61598246 -8.24202013 2.61598246 -16.6484375 6.68359375 C-17.20917969 7.55564453 -17.20917969 7.55564453 -17.78125 8.4453125 C-18.36519531 9.30576172 -18.36519531 9.30576172 -18.9609375 10.18359375 C-20.78001342 13.93449822 -21.03347353 17.84542212 -21.08325195 21.96386719 C-21.09608719 22.8954364 -21.10892242 23.82700562 -21.12214661 24.7868042 C-21.12953354 25.78270569 -21.13692047 26.77860718 -21.14453125 27.8046875 C-21.152603 28.84167786 -21.16067474 29.87866821 -21.16899109 30.94708252 C-21.1828001 33.139184 -21.19353644 35.33130669 -21.20141602 37.5234375 C-21.21293539 39.75592385 -21.23338635 41.98838267 -21.26293945 44.22070312 C-21.30576445 47.45722044 -21.32180576 50.69292146 -21.33203125 53.9296875 C-21.35829338 55.41139435 -21.35829338 55.41139435 -21.38508606 56.92303467 C-21.36669223 62.85933387 -20.47277405 67.10205001 -17.66862488 72.36260986 C-17.41704117 72.94677673 -17.16545746 73.5309436 -16.90625 74.1328125 C-17.40125 75.1228125 -17.40125 75.1228125 -17.90625 76.1328125 C-18.23625 75.1428125 -18.56625 74.1528125 -18.90625 73.1328125 C-19.56625 73.1328125 -20.22625 73.1328125 -20.90625 73.1328125 C-20.90625 72.1428125 -20.90625 71.1528125 -20.90625 70.1328125 C-21.56625 70.1328125 -22.22625 70.1328125 -22.90625 70.1328125 C-22.9570563 62.42816999 -22.99202834 54.72357088 -23.01611328 47.01879883 C-23.02615645 44.39899074 -23.03979352 41.77919381 -23.05712891 39.15942383 C-23.08145085 35.38880655 -23.09275019 31.6183378 -23.1015625 27.84765625 C-23.11188507 26.68072739 -23.12220764 25.51379852 -23.13284302 24.31150818 C-23.13392306 16.44248019 -22.76796667 9.67743109 -17.90625 3.1328125 C-12.75685366 -0.41849532 -6.02010356 -0.01685405 0 0 Z " fill="#2B4B78" transform="translate(40.90625,19.8671875)"/>
<path d="M0 0 C3.3 0 6.6 0 10 0 C10.33 4.62 10.66 9.24 11 14 C12.32 14 13.64 14 15 14 C15.33 13.01 15.66 12.02 16 11 C16 12.32 16 13.64 16 15 C14.35 15.33 12.7 15.66 11 16 C10.67 16.99 10.34 17.98 10 19 C10 18.34 10 17.68 10 17 C9.34 17 8.68 17 8 17 C8 17.99 8 18.98 8 20 C6.68 19.34 5.36 18.68 4 18 C4 18.33 4 18.66 4 19 C4 20.66666667 4 22.33333333 4 24 C2.68 24 1.36 24 0 24 C0 16.08 0 8.16 0 0 Z " fill="#316EAF" transform="translate(0,0)"/>
<path d="M0 0 C1.47583955 0.0001591 2.95168467 0.00585225 4.42749023 0.01586914 C5.20293686 0.01728409 5.97838348 0.01869904 6.77732849 0.02015686 C9.26361893 0.02577194 11.74982059 0.03832693 14.23608398 0.05102539 C15.91772331 0.05603845 17.59936405 0.06060169 19.28100586 0.06469727 C23.41189965 0.07574626 27.54272674 0.09302094 31.67358398 0.11352539 C31.34358398 0.77352539 31.01358398 1.43352539 30.67358398 2.11352539 C29.90272461 2.10192383 29.13186523 2.09032227 28.33764648 2.07836914 C27.33475586 2.0693457 26.33186523 2.06032227 25.29858398 2.05102539 C23.80198242 2.03362305 23.80198242 2.03362305 22.27514648 2.01586914 C19.68925945 1.93345937 19.68925945 1.93345937 17.67358398 3.11352539 C16.22168394 3.17387111 14.76698619 3.17394073 13.31420898 3.14086914 C12.44538086 3.12862305 11.57655273 3.11637695 10.68139648 3.10375977 C8.85839459 3.06890066 7.03546652 3.02991021 5.21264648 2.98657227 C-0.8652426 2.91037454 -5.994463 2.90762389 -10.63891602 7.30102539 C-12.64553689 10.64539352 -12.97559761 13.25452295 -13.32641602 17.11352539 C-13.4952832 17.75290039 -13.66415039 18.39227539 -13.83813477 19.05102539 C-14.89198621 23.50249391 -14.73295423 28.36541108 -13.70141602 32.80102539 C-13.18691481 35.97378284 -14.16285423 38.17039852 -15.32641602 41.11352539 C-14.66641602 41.11352539 -14.00641602 41.11352539 -13.32641602 41.11352539 C-12.37616622 44.80894125 -12.37616622 47.41810953 -13.32641602 51.11352539 C-12.66641602 51.44352539 -12.00641602 51.77352539 -11.32641602 52.11352539 C-11.98641602 54.42352539 -12.64641602 56.73352539 -13.32641602 59.11352539 C-13.98641602 58.78352539 -14.64641602 58.45352539 -15.32641602 58.11352539 C-16.73981867 49.03113619 -16.53973287 39.4759077 -16.56665039 30.30712891 C-16.57649639 28.28451468 -16.60774622 26.26286271 -16.63891602 24.24047852 C-16.6668568 17.16098192 -16.6431077 10.5288065 -13.32641602 4.11352539 C-10.56714258 1.35425195 -8.11487549 1.59569296 -4.32641602 1.11352539 C-3.32641602 0.11352539 -3.32641602 0.11352539 0 0 Z " fill="#102552" transform="translate(38.326416015625,24.886474609375)"/>
<path d="M0 0 C0.66 0 1.32 0 2 0 C2 0.99 2 1.98 2 3 C2.66 2.67 3.32 2.34 4 2 C5.66345582 1.87917466 7.33220591 1.8246206 9 1.8125 C9.886875 1.79832031 10.77375 1.78414063 11.6875 1.76953125 C14 2 14 2 16 4 C15.01 5.485 15.01 5.485 14 7 C15.65 7 17.3 7 19 7 C19 7.66 19 8.32 19 9 C7.45 9 -4.1 9 -16 9 C-15.34 8.34 -14.68 7.68 -14 7 C-14.66 6.67 -15.32 6.34 -16 6 C-16 5.34 -16 4.68 -16 4 C-12.94736336 3.01879536 -11.05263664 3.01879536 -8 4 C-8.33 3.01 -8.66 2.02 -9 1 C-7.700625 1.020625 -6.40125 1.04125 -5.0625 1.0625 C-3.70834367 1.08399454 -2.35243917 1.07148199 -1 1 C-0.67 0.67 -0.34 0.34 0 0 Z " fill="#263F6E" transform="translate(20,109)"/>
<path d="M0 0 C1.4800841 0.11362262 2.95910074 0.24122908 4.4375 0.375 C5.26121094 0.44460938 6.08492187 0.51421875 6.93359375 0.5859375 C7.61550781 0.72257813 8.29742188 0.85921875 9 1 C9.33 1.66 9.66 2.32 10 3 C9.33613281 3.29132812 8.67226563 3.58265625 7.98828125 3.8828125 C2.46222392 6.44819386 -1.91376876 8.52442845 -5 14 C-5.67643703 18.00225244 -5.9278208 21.94484123 -6 26 C-7.65 26 -9.3 26 -11 26 C-11.33 25.34 -11.66 24.68 -12 24 C-12.33 24.66 -12.66 25.32 -13 26 C-13.99 26 -14.98 26 -16 26 C-16 22.37 -16 18.74 -16 15 C-14.68 15 -13.36 15 -12 15 C-12.66 12.36 -13.32 9.72 -14 7 C-11.03 8.98 -11.03 8.98 -8 11 C-8 10.01 -8 9.02 -8 8 C-5.36 7.34 -2.72 6.68 0 6 C0 4.02 0 2.04 0 0 Z " fill="#59A8D3" transform="translate(16,9)"/>
<path d="M0 0 C2.10304477 -0.1080023 4.20766909 -0.18558987 6.3125 -0.25 C8.07013672 -0.31960937 8.07013672 -0.31960937 9.86328125 -0.390625 C13 0 13 0 14.90625 1.4375 C16.57493316 5.34698627 16.31544295 9.05084666 16.1875 13.25 C16.16719727 14.51070312 16.16719727 14.51070312 16.14648438 15.796875 C16.11123464 17.86485938 16.0574302 19.93251271 16 22 C12.40060205 21.46874558 11.28094172 21.29612776 8.6875 18.5625 C7 16 7 16 7 14 C6.34 13.67 5.68 13.34 5 13 C5.33 12.34 5.66 11.68 6 11 C6.99 11 7.98 11 9 11 C8.01 10.01 7.02 9.02 6 8 C6.33 7.34 6.66 6.68 7 6 C6.401875 5.7525 5.80375 5.505 5.1875 5.25 C2.70517913 3.83153093 1.63671965 2.30735262 0 0 Z " fill="#0B1A4D" transform="translate(101,0)"/>
<path d="M0 0 C1.32 0.66 2.64 1.32 4 2 C4.33 1.67 4.66 1.34 5 1 C6.66617115 0.95936168 8.33388095 0.957279 10 1 C10 1.66 10 2.32 10 3 C10.66 2.67 11.32 2.34 12 2 C13.90981946 1.90880329 15.82287186 1.88247463 17.73486328 1.88647461 C19.53650436 1.88658791 19.53650436 1.88658791 21.37454224 1.88670349 C23.32769852 1.89444542 23.32769852 1.89444542 25.3203125 1.90234375 C26.66266833 1.90420862 28.00502484 1.9056322 29.34738159 1.90663147 C32.88195675 1.91045122 36.41649087 1.92027688 39.9510498 1.93133545 C43.55720464 1.94156122 47.1633661 1.94613159 50.76953125 1.95117188 C57.84637096 1.96189962 64.9231828 1.97896955 72 2 C68.45590749 4.36272834 65.73611973 4.44457616 61.625 4.625 C60.52877319 4.68192017 60.52877319 4.68192017 59.41040039 4.73999023 C49.94626162 5.17615757 40.47113093 5.08332373 31 5 C31 4.67 31 4.34 31 4 C28.36 4 25.72 4 23 4 C22.67 4.99 22.34 5.98 22 7 C21.01 7 20.02 7 19 7 C19 6.34 19 5.68 19 5 C13.72 5.66 8.44 6.32 3 7 C2.67 5.35 2.34 3.7 2 2 C1.01 1.67 0.02 1.34 -1 1 C-0.67 0.67 -0.34 0.34 0 0 Z " fill="#54729B" transform="translate(19,105)"/>
<path d="M0 0 C0.33 0.99 0.66 1.98 1 3 C1.66 3 2.32 3 3 3 C3.126851 9.88659991 3.21437266 16.77289823 3.2746582 23.66040039 C3.29979125 26.00296284 3.33390308 28.34544695 3.37719727 30.68774414 C3.43789928 34.05634899 3.46622251 37.42391649 3.48828125 40.79296875 C3.51408768 41.83897751 3.5398941 42.88498627 3.56648254 43.96269226 C3.5668602 44.94333145 3.56723785 45.92397064 3.56762695 46.93432617 C3.57873001 47.79370285 3.58983307 48.65307953 3.60127258 49.53849792 C3 52 3 52 -2 57 C-1.34 38.19 -0.68 19.38 0 0 Z " fill="#355480" transform="translate(102,33)"/>
<path d="M0 0 C1.98 0 3.96 0 6 0 C6 7.26 6 14.52 6 22 C1.05 22 -3.9 22 -9 22 C-8.505 20.515 -8.505 20.515 -8 19 C-6.68 19 -5.36 19 -4 19 C-3.67 17.68 -3.34 16.36 -3 15 C-1.35 15.33 0.3 15.66 2 16 C2 15.34 2 14.68 2 14 C0.68 13.34 -0.64 12.68 -2 12 C-1.34 8.04 -0.68 4.08 0 0 Z " fill="#0C1940" transform="translate(119,96)"/>
<path d="M0 0 C1.28825684 0.01047363 2.57651367 0.02094727 3.90380859 0.03173828 C4.93167984 0.03598312 4.93167984 0.03598312 5.98031616 0.04031372 C8.17113636 0.05151797 10.36154925 0.07662219 12.55224609 0.10205078 C14.03661519 0.1120803 15.5209907 0.1212062 17.00537109 0.12939453 C20.6461287 0.15145784 24.28664766 0.18598903 27.92724609 0.22705078 C27.92724609 0.88705078 27.92724609 1.54705078 27.92724609 2.22705078 C28.87599609 2.04142578 29.82474609 1.85580078 30.80224609 1.66455078 C33.92724609 1.22705078 33.92724609 1.22705078 35.92724609 2.22705078 C35.92724609 3.21705078 35.92724609 4.20705078 35.92724609 5.22705078 C19.24888057 5.43553035 2.59270608 4.80394389 -14.07275391 4.22705078 C-14.07275391 3.89705078 -14.07275391 3.56705078 -14.07275391 3.22705078 C-13.44626953 3.17806641 -12.81978516 3.12908203 -12.17431641 3.07861328 C-11.35705078 3.00384766 -10.53978516 2.92908203 -9.69775391 2.85205078 C-8.88564453 2.78244141 -8.07353516 2.71283203 -7.23681641 2.64111328 C-3.95064192 2.01235065 -3.59865978 0.26591082 0 0 Z " fill="#395986" transform="translate(52.07275390625,15.77294921875)"/>
<path d="M0 0 C6.78667612 -0.71438696 6.78667612 -0.71438696 10.08984375 1.23046875 C11.91703377 2.74378564 13.54145272 4.12667833 15 6 C15 6.99 15 7.98 15 9 C16.9375006 11.18777466 16.9375006 11.18777466 19 13 C17.35 12.34 15.7 11.68 14 11 C13.34 12.32 12.68 13.64 12 15 C10.56068883 14.54738642 9.12361001 14.08767021 7.6875 13.625 C6.48673828 13.24214844 6.48673828 13.24214844 5.26171875 12.8515625 C3 12 3 12 0 10 C0 9.34 0 8.68 0 8 C-0.66 7.67 -1.32 7.34 -2 7 C-1.34 7 -0.68 7 0 7 C-0.33 6.01 -0.66 5.02 -1 4 C-0.5625 1.8125 -0.5625 1.8125 0 0 Z " fill="#253E6A" transform="translate(93,0)"/>
<path d="M0 0 C0.99 0.99 0.99 0.99 2 2 C0.71283353 3.00578589 -0.57988658 4.00446798 -1.875 5 C-2.59429687 5.556875 -3.31359375 6.11375 -4.0546875 6.6875 C-6 8 -6 8 -8 8 C-9.0209375 8.2784375 -9.0209375 8.2784375 -10.0625 8.5625 C-11.0215625 8.7790625 -11.0215625 8.7790625 -12 9 C-12.495 8.505 -12.495 8.505 -13 8 C-14.810285 7.90120435 -16.62452727 7.87028486 -18.4375 7.875 C-19.42621094 7.87242188 -20.41492188 7.86984375 -21.43359375 7.8671875 C-23.98909076 7.82771585 -23.98909076 7.82771585 -26 9 C-27.87499473 9.0730636 -29.75260741 9.08362321 -31.62890625 9.0625 C-32.74587891 9.05476563 -33.86285156 9.04703125 -35.01367188 9.0390625 C-36.18478516 9.02617188 -37.35589844 9.01328125 -38.5625 9 C-40.87625663 8.97461594 -43.19006598 8.95354049 -45.50390625 8.9375 C-47.04800171 8.92009766 -47.04800171 8.92009766 -48.62329102 8.90234375 C-50.95516936 8.72934239 -50.95516936 8.72934239 -52 10 C-55.32368643 10.29543879 -57.32085275 10.42689256 -60.1875 8.625 C-60.785625 8.08875 -61.38375 7.5525 -62 7 C-62.99 6.34 -63.98 5.68 -65 5 C-64.35599747 5.00444122 -63.71199493 5.00888245 -63.04847717 5.01345825 C-56.31578806 5.05787495 -49.58314093 5.08794234 -42.8503418 5.10986328 C-40.34121 5.11989011 -37.8320898 5.13351495 -35.32299805 5.15087891 C-31.70618824 5.17527318 -28.08953362 5.18651661 -24.47265625 5.1953125 C-22.80336815 5.21079636 -22.80336815 5.21079636 -21.10035706 5.22659302 C-10.51593986 5.58741379 -10.51593986 5.58741379 -1.25575256 1.42654419 C-0.84135422 0.95578461 -0.42695587 0.48502502 0 0 Z " fill="#2D4A75" transform="translate(97,92)"/>
<path d="M0 0 C2.4525805 2.4525805 2.98703035 4.46225248 4.0625 7.75 C4.40410156 8.77609375 4.74570312 9.8021875 5.09765625 10.859375 C6 14 6 14 7 20 C2.71 20 -1.58 20 -6 20 C-5.57534294 12.63927766 -3.01651083 6.67862176 0 0 Z " fill="#102948" transform="translate(48,44)"/>
<path d="M0 0 C0.66 0.33 1.32 0.66 2 1 C1.01 2.485 1.01 2.485 0 4 C-0.99 4 -1.98 4 -3 4 C-3.33 7.96 -3.66 11.92 -4 16 C-3.01 16.66 -2.02 17.32 -1 18 C-1 18.66 -1 19.32 -1 20 C-2.65 19.67 -4.3 19.34 -6 19 C-6 20.65 -6 22.3 -6 24 C-6.94875 23.67 -7.8975 23.34 -8.875 23 C-11.77062452 21.89840809 -11.77062452 21.89840809 -14 22 C-12.62845496 19.04590299 -11.01136276 16.55991624 -9 14 C-10.65 15.65 -12.3 17.3 -14 19 C-14.66 18.67 -15.32 18.34 -16 18 C-15.34 16.35 -14.68 14.7 -14 13 C-13.34 13 -12.68 13 -12 13 C-11.690625 12.21625 -11.38125 11.4325 -11.0625 10.625 C-10 8 -10 8 -9 6 C-7.68 6 -6.36 6 -5 6 C-4.731875 5.38125 -4.46375 4.7625 -4.1875 4.125 C-3 2 -3 2 0 0 Z " fill="#142750" transform="translate(122,92)"/>
<path d="M0 0 C0.33 0.66 0.66 1.32 1 2 C0.67 2.66 0.34 3.32 0 4 C-0.10070285 5.7098799 -0.13836067 7.42364576 -0.14526367 9.13647461 C-0.15164352 10.20776108 -0.15802338 11.27904755 -0.16459656 12.38279724 C-0.16570938 13.54424759 -0.1668222 14.70569794 -0.16796875 15.90234375 C-0.17129715 17.09098526 -0.17462555 18.27962677 -0.17805481 19.50428772 C-0.18312499 22.02197888 -0.18546311 24.53967678 -0.18530273 27.05737305 C-0.18748891 30.91791812 -0.20564312 34.77817742 -0.22460938 38.63867188 C-0.22754328 41.08072819 -0.22952809 43.52278586 -0.23046875 45.96484375 C-0.23765427 47.12426987 -0.24483978 48.28369598 -0.25224304 49.47825623 C-0.24916641 50.55269485 -0.24608978 51.62713348 -0.24291992 52.73413086 C-0.24505745 54.15404579 -0.24505745 54.15404579 -0.24723816 55.60264587 C-0.16116476 58.26353838 -0.16116476 58.26353838 2 61 C2 61.99 2 62.98 2 64 C3.65 64.33 5.3 64.66 7 65 C7 65.66 7 66.32 7 67 C7.66 67.33 8.32 67.66 9 68 C7 69 7 69 4.54859924 68.36981201 C-0.18264674 65.82687883 -1.44331178 60.91829874 -3 56 C-3.60133109 52.19591003 -3.63592042 48.51679869 -3.55859375 44.671875 C-3.55626236 43.63863098 -3.55393097 42.60538696 -3.55152893 41.54083252 C-3.54185999 39.37609494 -3.52023366 37.21137998 -3.48706055 35.046875 C-3.43741594 31.74440828 -3.42555723 28.4434324 -3.41992188 25.140625 C-3.40584176 23.0260259 -3.38963948 20.91143965 -3.37109375 18.796875 C-3.36573105 17.81757019 -3.36036835 16.83826538 -3.35484314 15.82928467 C-3.13543803 3.13543803 -3.13543803 3.13543803 0 0 Z " fill="#254672" transform="translate(22,29)"/>
<path d="M0 0 C2.97 0 5.94 0 9 0 C9 3.63 9 7.26 9 11 C8.67 10.34 8.34 9.68 8 9 C7.01 8.67 6.02 8.34 5 8 C4.67 32.42 4.34 56.84 4 82 C3.67 82 3.34 82 3 82 C2.99191315 81.01694382 2.98382629 80.03388763 2.97549438 79.02104187 C2.89807473 69.76540555 2.81034611 60.50991699 2.71247292 51.25447369 C2.66248568 46.49593215 2.61615589 41.73741307 2.578125 36.97875977 C2.54130281 32.38806117 2.4949513 27.79754943 2.44193649 23.20701027 C2.42337621 21.45392948 2.40827431 19.70080862 2.39665604 17.94766808 C2.37982144 15.4957597 2.3507936 13.04428077 2.31884766 10.5925293 C2.31668747 9.86460678 2.31452728 9.13668427 2.31230164 8.38670349 C2.25097599 4.71247552 2.09470392 3.14205588 0 0 Z " fill="#2D4B79" transform="translate(116,0)"/>
<path d="M0 0 C3.37492629 -0.05845196 6.74972087 -0.09374742 10.125 -0.125 C11.07632813 -0.14175781 12.02765625 -0.15851562 13.0078125 -0.17578125 C18.08583255 -0.21104528 22.24487525 -0.03333617 27 2 C27 2.99 27 3.98 27 5 C25.35 5.66 23.7 6.32 22 7 C21.7525 6.195625 21.505 5.39125 21.25 4.5625 C20.27761141 1.828919 20.27761141 1.828919 17.875 1.1875 C17.25625 1.125625 16.6375 1.06375 16 1 C16.33 2.65 16.66 4.3 17 6 C16.01 6 15.02 6 14 6 C13.67 6.66 13.34 7.32 13 8 C11.68 7.67 10.36 7.34 9 7 C9 6.34 9 5.68 9 5 C7.35 5 5.7 5 4 5 C3.67 5.99 3.34 6.98 3 8 C2.67 8 2.34 8 2 8 C2 6.35 2 4.7 2 3 C1.34 3 0.68 3 0 3 C0 2.01 0 1.02 0 0 Z " fill="#2F6199" transform="translate(30,0)"/>
<path d="M0 0 C1.11415283 0.07726318 2.22830566 0.15452637 3.3762207 0.23413086 C16.01883848 1.04262004 28.5312288 0.94848933 41.1875 0.5625 C43.12432999 0.50907357 45.06117911 0.45633602 46.99804688 0.40429688 C51.66562215 0.2774297 56.33284302 0.14139014 61 0 C60.67 0.66 60.34 1.32 60 2 C49.05537211 3.89957443 37.3271582 3.15402203 26.25488281 3.13037109 C23.21414373 3.12493591 20.17354754 3.13038592 17.1328125 3.13671875 C15.19791634 3.13605919 13.26302027 3.13478058 11.328125 3.1328125 C9.96581757 3.13584885 9.96581757 3.13584885 8.57598877 3.13894653 C7.32262726 3.13421829 7.32262726 3.13421829 6.04394531 3.12939453 C5.30895813 3.12859894 4.57397095 3.12780334 3.81671143 3.12698364 C2 3 2 3 0 2 C0 1.34 0 0.68 0 0 Z " fill="#1B3861" transform="translate(29,94)"/>
<path d="M0 0 C-0.763125 0.268125 -1.52625 0.53625 -2.3125 0.8125 C-4.99222978 1.77312482 -4.99222978 1.77312482 -6.3762207 3.5559082 C-8.54664658 5.48615464 -9.79805987 5.34780777 -12.66796875 5.29296875 C-13.56064453 5.28330078 -14.45332031 5.27363281 -15.37304688 5.26367188 C-16.76620117 5.2259668 -16.76620117 5.2259668 -18.1875 5.1875 C-19.12787109 5.17396484 -20.06824219 5.16042969 -21.03710938 5.14648438 C-23.35865038 5.11113096 -25.67903653 5.06178674 -28 5 C-28 3.68 -28 2.36 -28 1 C-24.77208445 -1.1519437 -23.71599191 -1.20086443 -20 -1 C-19.67 0.32 -19.34 1.64 -19 3 C-15.87802522 1.6910428 -15.87802522 1.6910428 -14 -1 C-11.85546875 -1.484375 -11.85546875 -1.484375 -9.1875 -1.75 C-7.87845703 -1.89695312 -7.87845703 -1.89695312 -6.54296875 -2.046875 C-3.79198442 -1.99616561 -2.32873426 -1.41135409 0 0 Z " fill="#253962" transform="translate(101,113)"/>
<path d="M0 0 C-0.99 0.66 -1.98 1.32 -3 2 C-8.39070815 5.90826341 -10.92417525 9.43531911 -12 16 C-12.10016922 17.60831569 -12.15752648 19.21974034 -12.17700195 20.83105469 C-12.18983719 21.7626239 -12.20267242 22.69419312 -12.21589661 23.6539917 C-12.22328354 24.64989319 -12.23067047 25.64579468 -12.23828125 26.671875 C-12.246353 27.70886536 -12.25442474 28.74585571 -12.26274109 29.81427002 C-12.2765501 32.0063715 -12.28728644 34.19849419 -12.29516602 36.390625 C-12.30668539 38.62311135 -12.32713635 40.85557017 -12.35668945 43.08789062 C-12.39951445 46.32440794 -12.41555576 49.56010896 -12.42578125 52.796875 C-12.45204338 54.27858185 -12.45204338 54.27858185 -12.47883606 55.79022217 C-12.46044223 61.72652137 -11.56652405 65.96923751 -8.76237488 71.22979736 C-8.51079117 71.81396423 -8.25920746 72.3981311 -8 73 C-8.495 73.99 -8.495 73.99 -9 75 C-9.33 74.01 -9.66 73.02 -10 72 C-10.66 72 -11.32 72 -12 72 C-12 71.01 -12 70.02 -12 69 C-12.66 69 -13.32 69 -14 69 C-14.0508063 61.29535749 -14.08577834 53.59075838 -14.10986328 45.88598633 C-14.11990645 43.26617824 -14.13354352 40.64638131 -14.15087891 38.02661133 C-14.17520085 34.25599405 -14.18650019 30.4855253 -14.1953125 26.71484375 C-14.20563507 25.54791489 -14.21595764 24.38098602 -14.22659302 23.17869568 C-14.22767306 15.30966769 -13.86171667 8.54461859 -9 2 C-6.00651705 -0.09543806 -3.59951941 -0.1999733 0 0 Z " fill="#305984" transform="translate(32,21)"/>
<path d="M0 0 C1.8741081 1.5760513 2.89959302 2.47497707 3.36749268 4.92160034 C3.36384705 5.64598297 3.36020142 6.3703656 3.35644531 7.11669922 C3.35944641 7.94120575 3.36244751 8.76571228 3.36553955 9.61520386 C3.35319275 10.50273346 3.34084595 11.39026306 3.328125 12.3046875 C3.32531525 13.67888351 3.32531525 13.67888351 3.32244873 15.08084106 C3.31572547 17.01926306 3.30180556 18.95767143 3.28125 20.89599609 C3.25019329 23.8565743 3.24028758 26.81661903 3.234375 29.77734375 C3.22520048 31.66146479 3.21482329 33.54558044 3.203125 35.4296875 C3.19887512 36.31316864 3.19462524 37.19664978 3.19024658 38.10690308 C3.08727835 47.01106461 3.08727835 47.01106461 2 50 C-0.0625 51.3125 -0.0625 51.3125 -2 52 C-1.8570752 51.21995605 -1.71415039 50.43991211 -1.56689453 49.63623047 C0.17178159 39.08117567 0.23186487 28.7933404 0.125 18.125 C0.11494039 16.35807804 0.10581986 14.59115048 0.09765625 12.82421875 C0.07590126 8.54933746 0.04153949 4.27473293 0 0 Z " fill="#132854" transform="translate(95,38)"/>
<path d="M0 0 C3.3 0 6.6 0 10 0 C10.33 4.62 10.66 9.24 11 14 C12.32 14 13.64 14 15 14 C15.33 13.01 15.66 12.02 16 11 C16 12.32 16 13.64 16 15 C14.35 15.33 12.7 15.66 11 16 C10.67 16.99 10.34 17.98 10 19 C10 18.34 10 17.68 10 17 C9.34 17 8.68 17 8 17 C7.87625 16.05125 7.7525 15.1025 7.625 14.125 C7.28312823 10.91332809 7.28312823 10.91332809 5 9 C3.68252676 8.30251417 2.35085807 7.63040043 1 7 C2.65 6.67 4.3 6.34 6 6 C6 5.01 6 4.02 6 3 C4.02 3 2.04 3 0 3 C0 2.01 0 1.02 0 0 Z " fill="#3271B0" transform="translate(0,0)"/>
<path d="M0 0 C3.3 0 6.6 0 10 0 C10 1.98 10 3.96 10 6 C9.01 6.33 8.02 6.66 7 7 C5.77030122 10.51190809 5.77030122 10.51190809 5 14 C3.68 14 2.36 14 1 14 C-0.21379503 9.29654425 -0.07202527 4.82569313 0 0 Z " fill="#225797" transform="translate(10,0)"/>
<path d="M0 0 C7.75 0.75 7.75 0.75 10 3 C11.95145868 3.27762113 11.95145868 3.27762113 14.20263672 3.1953125 C15.07048798 3.18870605 15.93833923 3.18209961 16.83248901 3.17529297 C17.77206451 3.15869629 18.71164001 3.14209961 19.6796875 3.125 C21.12615158 3.11364014 21.12615158 3.11364014 22.60183716 3.10205078 C26.73785847 3.06927532 30.87348908 3.01310592 35.00927734 2.95898438 C38.02439554 2.9228467 41.03944957 2.8986334 44.0546875 2.875 C44.99021454 2.85840332 45.92574158 2.84180664 46.88961792 2.82470703 C48.20085129 2.81479736 48.20085129 2.81479736 49.53857422 2.8046875 C50.68868484 2.78897705 50.68868484 2.78897705 51.86203003 2.77294922 C54.28498317 3.030265 55.90008887 3.79483814 58 5 C52.77584332 5.1958962 47.55145325 5.37393792 42.32617188 5.53710938 C40.55746067 5.59465963 38.78888744 5.65666381 37.02050781 5.72363281 C24.80885272 6.18209085 13.10609125 5.69842259 1 4 C0.67 2.68 0.34 1.36 0 0 Z " fill="#122A55" transform="translate(28,90)"/>
<path d="M0 0 C4 2 4 2 5 4 C5.08342159 5.44848582 5.10732861 6.90070869 5.09765625 8.3515625 C5.09443359 9.20234375 5.09121094 10.053125 5.08789062 10.9296875 C5.07951172 11.81914062 5.07113281 12.70859375 5.0625 13.625 C5.05798828 14.5221875 5.05347656 15.419375 5.04882812 16.34375 C5.03702591 18.56256648 5.02056155 20.78125018 5 23 C4.34 23 3.68 23 3 23 C3 22.01 3 21.02 3 20 C2.01 20.33 1.02 20.66 0 21 C0 14.07 0 7.14 0 0 Z " fill="#0F214E" transform="translate(120,7)"/>
<path d="M0 0 C1.11375 0.639375 2.2275 1.27875 3.375 1.9375 C5.23497087 3.00526106 7.08142937 4.04071468 9 5 C9 8.63 9 12.26 9 16 C4 15 4 15 1.6875 12.5625 C0 10 0 10 0 8 C-0.66 7.67 -1.32 7.34 -2 7 C-1.67 6.34 -1.34 5.68 -1 5 C-0.01 5 0.98 5 2 5 C1.01 4.01 0.02 3.02 -1 2 C-0.67 1.34 -0.34 0.68 0 0 Z " fill="#14294D" transform="translate(108,6)"/>
<path d="M0 0 C1.4800841 0.11362262 2.95910074 0.24122908 4.4375 0.375 C5.26121094 0.44460938 6.08492187 0.51421875 6.93359375 0.5859375 C7.95646484 0.79089844 7.95646484 0.79089844 9 1 C9.33 1.66 9.66 2.32 10 3 C9.33613281 3.29132812 8.67226563 3.58265625 7.98828125 3.8828125 C2.46222392 6.44819386 -1.91376876 8.52442845 -5 14 C-5.67643703 18.00225244 -5.9278208 21.94484123 -6 26 C-8.45391569 22.31912647 -8.22802759 19.55644412 -8.125 15.3125 C-8.11597656 14.61060547 -8.10695313 13.90871094 -8.09765625 13.18554688 C-8.07413704 11.45688475 -8.03826713 9.72839855 -8 8 C-5.36 7.34 -2.72 6.68 0 6 C0 4.02 0 2.04 0 0 Z " fill="#53A6D4" transform="translate(16,9)"/>
<path d="M0 0 C0.33 0 0.66 0 1 0 C1 1.65 1 3.3 1 5 C1.99 5 2.98 5 4 5 C4.33 4.01 4.66 3.02 5 2 C7.08430709 9.6920857 7.30125597 16.93032441 7.25 24.875 C7.25773438 26.09703125 7.26546875 27.3190625 7.2734375 28.578125 C7.27085938 29.74601562 7.26828125 30.91390625 7.265625 32.1171875 C7.26336914 33.17534668 7.26111328 34.23350586 7.25878906 35.32373047 C7 38 7 38 5 41 C5 30.11 5 19.22 5 8 C3.68 8.99 2.36 9.98 1 11 C0.67 10.34 0.34 9.68 0 9 C-0.33 9.66 -0.66 10.32 -1 11 C-1.99 11 -2.98 11 -4 11 C-4 9.02 -4 7.04 -4 5 C-3.01 5 -2.02 5 -1 5 C-0.67 3.35 -0.34 1.7 0 0 Z " fill="#66BDD8" transform="translate(4,30)"/>
<path d="M0 0 C0 0.66 0 1.32 0 2 C0.8971875 1.6596875 0.8971875 1.6596875 1.8125 1.3125 C2.8953125 1.1578125 2.8953125 1.1578125 4 1 C5.75 2.4375 5.75 2.4375 7 4 C5.68 5.32 4.36 6.64 3 8 C3.99 9.485 3.99 9.485 5 11 C2.03 11 -0.94 11 -4 11 C-4 7.7 -4 4.4 -4 1 C-2 0 -2 0 0 0 Z " fill="#19346F" transform="translate(4,100)"/>
<path d="M0 0 C0.99 0.33 1.98 0.66 3 1 C3 11.23 3 21.46 3 32 C2.01 32.495 2.01 32.495 1 33 C-0.26750669 26.20336964 -0.11139726 19.45701316 -0.0625 12.5625 C-0.05798828 11.35400391 -0.05347656 10.14550781 -0.04882812 8.90039062 C-0.03710145 5.93354211 -0.02068896 2.9667973 0 0 Z " fill="#48779E" transform="translate(115,23)"/>
<path d="M0 0 C0.33 0 0.66 0 1 0 C1 20.79 1 41.58 1 63 C0.01 62.34 -0.98 61.68 -2 61 C-2.32952881 58.57777405 -2.32952881 58.57777405 -2.26464844 55.49633789 C-2.24762878 54.34496841 -2.23060913 53.19359894 -2.21307373 52.00733948 C-2.17885315 50.75839401 -2.14463257 49.50944855 -2.109375 48.22265625 C-2.08530579 46.94523056 -2.06123657 45.66780487 -2.03643799 44.35166931 C-1.98268585 41.6452325 -1.92332982 38.93965267 -1.85400391 36.23364258 C-1.7652831 32.7658075 -1.6937536 29.29790488 -1.62871933 25.82955265 C-1.56590197 22.52294564 -1.49402572 19.2165737 -1.421875 15.91015625 C-1.39575134 14.66323502 -1.36962769 13.41631378 -1.3427124 12.13160706 C-1.31308411 10.97708542 -1.28345581 9.82256378 -1.25292969 8.63305664 C-1.22833679 7.61538712 -1.2037439 6.59771759 -1.17840576 5.54920959 C-1 3 -1 3 0 0 Z " fill="#467DA3" transform="translate(16,27)"/>
<path d="M0 0 C0.33 0.99 0.66 1.98 1 3 C2.32 2.34 3.64 1.68 5 1 C5 6.94 5 12.88 5 19 C4.34 19.33 3.68 19.66 3 20 C3 19.01 3 18.02 3 17 C2.01 17.33 1.02 17.66 0 18 C0 12.06 0 6.12 0 0 Z " fill="#8AF1F6" transform="translate(0,45)"/>
<path d="M0 0 C7.59 0 15.18 0 23 0 C19 4 19 4 15.43359375 4.06640625 C14.09906493 3.91959485 12.7667906 3.75093367 11.4375 3.5625 C6.48079539 2.66215946 6.48079539 2.66215946 2.03515625 4.46484375 C1.69355469 4.97144531 1.35195312 5.47804688 1 6 C0.67 5.34 0.34 4.68 0 4 C0.66 4 1.32 4 2 4 C2 3.34 2 2.68 2 2 C1.34 2 0.68 2 0 2 C0 1.34 0 0.68 0 0 Z M-5 5 C-2.525 5.495 -2.525 5.495 0 6 C-1.32 6.33 -2.64 6.66 -4 7 C-4.33 6.34 -4.66 5.68 -5 5 Z " fill="#234374" transform="translate(68,0)"/>
<path d="M0 0 C1.670625 0.061875 1.670625 0.061875 3.375 0.125 C3.045 0.785 2.715 1.445 2.375 2.125 C0.3125 2.75 0.3125 2.75 -1.625 3.125 C-1.625 3.785 -1.625 4.445 -1.625 5.125 C-4.265 5.125 -6.905 5.125 -9.625 5.125 C-9.625 5.785 -9.625 6.445 -9.625 7.125 C-7.645 7.125 -5.665 7.125 -3.625 7.125 C-6.89045761 9.00891785 -9.90611761 9.61787967 -13.625 10.125 C-13.625 7.815 -13.625 5.505 -13.625 3.125 C-12.34625 3.00125 -11.0675 2.8775 -9.75 2.75 C-5.58490547 2.34692634 -4.19376188 0.14461248 0 0 Z " fill="#38538B" transform="translate(13.625,107.875)"/>
<path d="M0 0 C2.97 0 5.94 0 9 0 C9 1.65 9 3.3 9 5 C9.99 4.67 10.98 4.34 12 4 C12 4.66 12 5.32 12 6 C7.05 6 2.1 6 -3 6 C-3 5.01 -3 4.02 -3 3 C-2.01 3 -1.02 3 0 3 C0 2.01 0 1.02 0 0 Z " fill="#293C65" transform="translate(45,112)"/>
<path d="M0 0 C1 2 1 2 1.4375 4.0625 C1.7159375 5.0215625 1.7159375 5.0215625 2 6 C2.66 6.33 3.32 6.66 4 7 C4 7.66 4 8.32 4 9 C2.35 8.67 0.7 8.34 -1 8 C-1 9.65 -1 11.3 -1 13 C-1.94875 12.67 -2.8975 12.34 -3.875 12 C-6.77062452 10.89840809 -6.77062452 10.89840809 -9 11 C-7.2034488 6.75360625 -4.18376817 2.09188408 0 0 Z " fill="#17254E" transform="translate(117,103)"/>
<path d="M0 0 C0.66 0.33 1.32 0.66 2 1 C1.89171875 1.87398438 1.89171875 1.87398438 1.78125 2.765625 C1.01528472 9.53165166 0.89477142 16.19521851 1 23 C0.34 23 -0.32 23 -1 23 C-1 18.05 -1 13.1 -1 8 C-1.99 8 -2.98 8 -4 8 C-4 6.02 -4 4.04 -4 2 C-2.125 0.9375 -2.125 0.9375 0 0 Z " fill="#6DC8E5" transform="translate(4,65)"/>
<path d="M0 0 C12.21 0 24.42 0 37 0 C35 2 35 2 32.49389648 2.21118164 C30.94810913 2.18592407 30.94810913 2.18592407 29.37109375 2.16015625 C27.69563477 2.1437207 27.69563477 2.1437207 25.98632812 2.12695312 C24.81521484 2.10568359 23.64410156 2.08441406 22.4375 2.0625 C20.12375787 2.02823174 17.80995025 1.99805387 15.49609375 1.97265625 C14.46669678 1.95468994 13.4372998 1.93672363 12.37670898 1.91821289 C10.04470081 1.72784253 10.04470081 1.72784253 9 3 C6.125 3.25 6.125 3.25 3 3 C2.01 2.01 1.02 1.02 0 0 Z " fill="#375580" transform="translate(36,99)"/>
<path d="M0 0 C0.99 0 1.98 0 3 0 C3.33 6.6 3.66 13.2 4 20 C2.68 20 1.36 20 0 20 C0 13.4 0 6.8 0 0 Z " fill="#3C7AB1" transform="translate(0,73)"/>
<path d="M0 0 C0 0.99 0 1.98 0 3 C-1.33333333 4.33333333 -2.66666667 5.66666667 -4 7 C-4 7.99 -4 8.98 -4 10 C-7.63 10.33 -11.26 10.66 -15 11 C-12.75828204 6.38284757 -10.42441548 4.81989103 -5.8125 2.6875 C-4.72582031 2.17574219 -3.63914062 1.66398437 -2.51953125 1.13671875 C-1.68808594 0.76160156 -0.85664062 0.38648437 0 0 Z " fill="#384F78" transform="translate(105,102)"/>
<path d="M0 0 C-0.969375 0.433125 -1.93875 0.86625 -2.9375 1.3125 C-6.27731765 2.7014861 -6.27731765 2.7014861 -7 6 C-7.66 6 -8.32 6 -9 6 C-10.66489182 9.92438786 -11.87204037 13.89100419 -13 18 C-13.66 18 -14.32 18 -15 18 C-15.60769739 13.83293221 -15.82485131 10.41300615 -13.65234375 6.69140625 C-10.33720582 2.72052675 -5.58043717 -2.79021858 0 0 Z " fill="#4172A1" transform="translate(32,17)"/>
<path d="M0 0 C0.33 0.66 0.66 1.32 1 2 C-0.3125 4 -0.3125 4 -2 6 C-2.99 6 -3.98 6 -5 6 C-5 5.34 -5 4.68 -5 4 C-9.53140653 3.06619039 -9.53140653 3.06619039 -14 4 C-14 5.32 -14 6.64 -14 8 C-14.66 8 -15.32 8 -16 8 C-17.125 3.25 -17.125 3.25 -16 1 C-13.28553021 0.68758545 -10.66090639 0.48663408 -7.9375 0.375 C-7.17888672 0.33632812 -6.42027344 0.29765625 -5.63867188 0.2578125 C-3.75952805 0.16326438 -1.87979664 0.08053244 0 0 Z " fill="#3E537C" transform="translate(87,110)"/>
<path d="M0 0 C1.98 0 3.96 0 6 0 C6 0.99 6 1.98 6 3 C4.68 3.33 3.36 3.66 2 4 C3.32 4 4.64 4 6 4 C6 4.99 6 5.98 6 7 C6.66 6.67 7.32 6.34 8 6 C8 7.98 8 9.96 8 12 C7.01 12 6.02 12 5 12 C5 10.68 5 9.36 5 8 C3.35 8.33 1.7 8.66 0 9 C0 6.03 0 3.06 0 0 Z " fill="#235E9E" transform="translate(0,3)"/>
<path d="M0 0 C1.67739258 0.00966797 1.67739258 0.00966797 3.38867188 0.01953125 C5.13954102 0.04466797 5.13954102 0.04466797 6.92578125 0.0703125 C8.69405273 0.08384766 8.69405273 0.08384766 10.49804688 0.09765625 C13.41166151 0.12124827 16.32487017 0.1541671 19.23828125 0.1953125 C17.23828125 2.1953125 17.23828125 2.1953125 14.98828125 2.35546875 C14.08078125 2.32324219 13.17328125 2.29101562 12.23828125 2.2578125 C6.83001404 2.15064736 1.60316957 2.5436124 -3.76171875 3.1953125 C-3.10171875 3.5253125 -2.44171875 3.8553125 -1.76171875 4.1953125 C-1.76171875 4.8553125 -1.76171875 5.5153125 -1.76171875 6.1953125 C-4.13671875 5.8828125 -4.13671875 5.8828125 -6.76171875 5.1953125 C-7.42171875 4.2053125 -8.08171875 3.2153125 -8.76171875 2.1953125 C-5.31537993 -0.10224672 -4.05103484 -0.04112726 0 0 Z " fill="#5177A5" transform="translate(47.76171875,8.8046875)"/>
<path d="M0 0 C2.97 0.33 5.94 0.66 9 1 C7 3 7 3 4.5 3.9375 C1.69808253 4.8583474 1.69808253 4.8583474 0 8 C-3.625 8.1875 -3.625 8.1875 -7 8 C-6.34 7.34 -5.68 6.68 -5 6 C-5.66 5.67 -6.32 5.34 -7 5 C-7 4.34 -7 3.68 -7 3 C-3.94736336 2.01879536 -2.05263664 2.01879536 1 3 C0.67 2.01 0.34 1.02 0 0 Z " fill="#183266" transform="translate(11,110)"/>
<path d="M0 0 C19.8 0.495 19.8 0.495 40 1 C40 1.33 40 1.66 40 2 C38.35801636 2.03758423 38.35801636 2.03758423 36.68286133 2.07592773 C32.61064517 2.17030008 28.53858774 2.27044731 24.46655273 2.37231445 C22.70617392 2.41555069 20.94575622 2.4572335 19.18530273 2.49731445 C16.65075987 2.55529185 14.11641066 2.61890627 11.58203125 2.68359375 C10.40674614 2.70866249 10.40674614 2.70866249 9.2077179 2.73423767 C5.3667745 2.83770807 1.73820878 3.08578184 -2 4 C-1.34 2.68 -0.68 1.36 0 0 Z " fill="#466693" transform="translate(39,7)"/>
<path d="M0 0 C0.99 0.66 1.98 1.32 3 2 C3.29296875 4.6015625 3.29296875 4.6015625 3.1875 7.625 C3.16042969 8.62789062 3.13335937 9.63078125 3.10546875 10.6640625 C3.07066406 11.43492188 3.03585938 12.20578125 3 13 C1.35 13 -0.3 13 -2 13 C-2.19294408 8.17639811 -1.75747614 4.50353262 0 0 Z " fill="#151E43" transform="translate(122,69)"/>
<path d="M0 0 C0.82062424 0.00007553 1.64124847 0.00015106 2.48674011 0.00022888 C3.80875175 0.00797081 3.80875175 0.00797081 5.1574707 0.01586914 C6.5161602 0.01799156 6.5161602 0.01799156 7.90229797 0.02015686 C10.79598286 0.02575538 13.68959044 0.03830758 16.58325195 0.05102539 C18.54483938 0.05604058 20.50642801 0.06060346 22.46801758 0.06469727 C27.27729217 0.07572432 32.08650895 0.09298792 36.89575195 0.11352539 C36.89575195 0.44352539 36.89575195 0.77352539 36.89575195 1.11352539 C35.17690796 1.15110962 35.17690796 1.15110962 33.42333984 1.18945312 C29.18721597 1.28335645 24.95126267 1.38361814 20.71533203 1.48583984 C18.87910948 1.52925359 17.04284488 1.57092378 15.20654297 1.61083984 C12.57286884 1.66838708 9.93940774 1.73212537 7.3059082 1.79711914 C6.47986588 1.81383163 5.65382355 1.83054413 4.80274963 1.84776306 C1.04098442 1.59159972 1.04098442 1.59159972 -2.10424805 3.11352539 C-4.10383168 3.15433322 -6.10470059 3.15606895 -8.10424805 3.11352539 C-6.39280728 -0.30935613 -3.44328505 -0.01059472 0 0 Z " fill="#193261" transform="translate(36.104248046875,23.886474609375)"/>
<path d="M0 0 C2.97 0 5.94 0 9 0 C9 3.63 9 7.26 9 11 C8.67 10.34 8.34 9.68 8 9 C7.360625 8.71125 6.72125 8.4225 6.0625 8.125 C3.5316719 6.74454831 3.10684325 5.60898766 2 3 C1.34 2.01 0.68 1.02 0 0 Z " fill="#193971" transform="translate(116,0)"/>
<path d="M0 0 C0.66 0 1.32 0 2 0 C3.4606285 2.64738916 4 3.89448334 4 7 C0.04 7 -3.92 7 -8 7 C-6.25 4.5 -6.25 4.5 -4 2 C-2.68 2 -1.36 2 0 2 C0 1.34 0 0.68 0 0 Z " fill="#0F204A" transform="translate(101,111)"/>
<path d="M0 0 C0.33 0 0.66 0 1 0 C1.05395478 1.62463842 1.09277195 3.24978541 1.125 4.875 C1.14820313 5.77992187 1.17140625 6.68484375 1.1953125 7.6171875 C1 10 1 10 -1 12 C-4.125 12.125 -4.125 12.125 -7 12 C-7.66 13.32 -8.32 14.64 -9 16 C-9.33 14.35 -9.66 12.7 -10 11 C-9.34 11 -8.68 11 -8 11 C-8 10.01 -8 9.02 -8 8 C-7.01 8 -6.02 8 -5 8 C-5 8.66 -5 9.32 -5 10 C-1.80029967 8.34945764 -1.80029967 8.34945764 -1.375 5.5625 C-1.25125 4.716875 -1.1275 3.87125 -1 3 C-0.67 2.01 -0.34 1.02 0 0 Z " fill="#5291BD" transform="translate(13,77)"/>
<path d="M0 0 C1.32 0 2.64 0 4 0 C4 5.94 4 11.88 4 18 C3.34 18.33 2.68 18.66 2 19 C1.855625 17.948125 1.71125 16.89625 1.5625 15.8125 C1.23855296 13.61685896 0.88226143 11.42438923 0.4375 9.25 C-0.16464449 6.15325688 0 3.1580183 0 0 Z " fill="#16224A" transform="translate(121,31)"/>
<path d="M0 0 C3.10688419 -0.45466598 5.23590177 -0.46669473 7.95703125 1.1953125 C9.84708977 2.72737623 11.50730468 4.07451136 13 6 C13 7.32 13 8.64 13 10 C11.02 10 9.04 10 7 10 C6.67 9.01 6.34 8.02 6 7 C5.34 7 4.68 7 4 7 C4 6.34 4 5.68 4 5 C5.32 5.33 6.64 5.66 8 6 C6.68 5.01 5.36 4.02 4 3 C3.01 3.495 3.01 3.495 2 4 C1.34 2.68 0.68 1.36 0 0 Z " fill="#3D5685" transform="translate(95,0)"/>
<path d="M0 0 C0.598125 0.495 1.19625 0.99 1.8125 1.5 C3.97029994 3.28276418 3.97029994 3.28276418 7 3 C6.67 7.29 6.34 11.58 6 16 C5.34 16 4.68 16 4 16 C4 13.69 4 11.38 4 9 C2.02 9 0.04 9 -2 9 C-0.68 8.67 0.64 8.34 2 8 C1.34 5.36 0.68 2.72 0 0 Z " fill="#439FCB" transform="translate(2,16)"/>
<path d="M0 0 C2.97 0 5.94 0 9 0 C9 0.66 9 1.32 9 2 C9.66 2 10.32 2 11 2 C11 2.66 11 3.32 11 4 C10.34 4 9.68 4 9 4 C9 4.66 9 5.32 9 6 C4.545 5.01 4.545 5.01 0 4 C0 2.68 0 1.36 0 0 Z " fill="#436D9F" transform="translate(59,0)"/>
<path d="M0 0 C0.33 1.32 0.66 2.64 1 4 C0.34 4 -0.32 4 -1 4 C-0.01 5.65 0.98 7.3 2 9 C-1.63 9 -5.26 9 -9 9 C-6.70849787 4.41699573 -5.44601819 4.0811149 -1 2 C-0.67 1.34 -0.34 0.68 0 0 Z " fill="#28467E" transform="translate(20,109)"/>
<path d="M0 0 C0.66 0.66 1.32 1.32 2 2 C0.71283353 3.00578589 -0.57988658 4.00446798 -1.875 5 C-2.59429687 5.556875 -3.31359375 6.11375 -4.0546875 6.6875 C-6 8 -6 8 -8 8 C-9.33783393 8.31478446 -10.67203709 8.64587656 -12 9 C-12 7.68 -12 6.36 -12 5 C-11.07767578 4.83564453 -11.07767578 4.83564453 -10.13671875 4.66796875 C-9.32847656 4.50941406 -8.52023438 4.35085937 -7.6875 4.1875 C-6.88699219 4.03667969 -6.08648437 3.88585937 -5.26171875 3.73046875 C-2.76554413 2.92427764 -1.67577894 1.97947998 0 0 Z " fill="#33517C" transform="translate(97,92)"/>
<path d="M0 0 C0.33 0.99 0.66 1.98 1 3 C-0.32 4.32 -1.64 5.64 -3 7 C-2.25 2.25 -2.25 2.25 0 0 Z M-4 7 C-3.67 7 -3.34 7 -3 7 C-2.94200876 10.77076889 -2.90640694 14.54142334 -2.875 18.3125 C-2.84986328 19.9202832 -2.84986328 19.9202832 -2.82421875 21.56054688 C-2.81777344 22.58857422 -2.81132812 23.61660156 -2.8046875 24.67578125 C-2.79421387 25.62364502 -2.78374023 26.57150879 -2.77294922 27.5480957 C-3 30 -3 30 -5 33 C-5.02907084 29.41668375 -5.04682263 25.83339792 -5.0625 22.25 C-5.07087891 21.23421875 -5.07925781 20.2184375 -5.08789062 19.171875 C-5.09111328 18.1921875 -5.09433594 17.2125 -5.09765625 16.203125 C-5.10289307 15.30239258 -5.10812988 14.40166016 -5.11352539 13.47363281 C-5.00762312 11.16610196 -4.65132813 9.20865595 -4 7 Z " fill="#162D5A" transform="translate(27,27)"/>
<path d="M0 0 C-0.33 1.98 -0.66 3.96 -1 6 C-6.28 5.67 -11.56 5.34 -17 5 C-17 4.34 -17 3.68 -17 3 C-16.25234375 3.03480469 -15.5046875 3.06960938 -14.734375 3.10546875 C-13.74953125 3.13253906 -12.7646875 3.15960938 -11.75 3.1875 C-10.77546875 3.22230469 -9.8009375 3.25710938 -8.796875 3.29296875 C-5.12325311 2.90816199 -3.43579868 0 0 0 Z " fill="#5074A4" transform="translate(93,0)"/>
<path d="M0 0 C0.99 0.33 1.98 0.66 3 1 C3 5.62 3 10.24 3 15 C2.67 15 2.34 15 2 15 C1.67 16.65 1.34 18.3 1 20 C0.67 20 0.34 20 0 20 C0 13.4 0 6.8 0 0 Z " fill="#40678F" transform="translate(115,23)"/>
<path d="M0 0 C0.66 0 1.32 0 2 0 C2.33 2.64 2.66 5.28 3 8 C4.32 8 5.64 8 7 8 C7.33 7.01 7.66 6.02 8 5 C8 6.32 8 7.64 8 9 C6.35 9.33 4.7 9.66 3 10 C2.67 10.99 2.34 11.98 2 13 C2 12.34 2 11.68 2 11 C1.34 11 0.68 11 0 11 C0 7.37 0 3.74 0 0 Z " fill="#3C77B5" transform="translate(8,6)"/>
<path d="M0 0 C0.99 0.33 1.98 0.66 3 1 C3.33 2.65 3.66 4.3 4 6 C0.04 6 -3.92 6 -8 6 C-7.67 5.34 -7.34 4.68 -7 4 C-6.34 4.33 -5.68 4.66 -5 5 C-4.67 4.01 -4.34 3.02 -4 2 C-4 2.66 -4 3.32 -4 4 C-3.34 4 -2.68 4 -2 4 C-2 3.01 -2 2.02 -2 1 C-1.34 0.67 -0.68 0.34 0 0 Z " fill="#253B64" transform="translate(67,112)"/>
<path d="M0 0 C0.33 0.99 0.66 1.98 1 3 C2.65 2.67 4.3 2.34 6 2 C6 3.32 6 4.64 6 6 C5.34 6 4.68 6 4 6 C4 6.99 4 7.98 4 9 C2.125 8.75 2.125 8.75 0 8 C-1.25 5.9375 -1.25 5.9375 -2 4 C-1.34 4 -0.68 4 0 4 C0 2.68 0 1.36 0 0 Z " fill="#2C4B81" transform="translate(21,109)"/>
<path d="M0 0 C1.32 0.66 2.64 1.32 4 2 C4.33 1.67 4.66 1.34 5 1 C6.66617115 0.95936168 8.33388095 0.957279 10 1 C9.67 2.65 9.34 4.3 9 6 C7.02 6.33 5.04 6.66 3 7 C2.67 5.35 2.34 3.7 2 2 C1.01 1.67 0.02 1.34 -1 1 C-0.67 0.67 -0.34 0.34 0 0 Z " fill="#5278AA" transform="translate(19,105)"/>
<path d="M0 0 C0.66 0.99 1.32 1.98 2 3 C-0.475 2.01 -0.475 2.01 -3 1 C-3.66 2.32 -4.32 3.64 -5 5 C-7.97 4.01 -10.94 3.02 -14 2 C-14 1.67 -14 1.34 -14 1 C-9.21996348 0.0439927 -4.8527811 -0.32351874 0 0 Z " fill="#283E69" transform="translate(110,10)"/>
<path d="M0 0 C4.46839215 -0.21278058 7.82262526 0.40861915 12 2 C12 2.99 12 3.98 12 5 C10.35 5.66 8.7 6.32 7 7 C6.7525 6.195625 6.505 5.39125 6.25 4.5625 C5.27761141 1.828919 5.27761141 1.828919 2.875 1.1875 C2.25625 1.125625 1.6375 1.06375 1 1 C1.33 2.65 1.66 4.3 2 6 C1.01 5.67 0.02 5.34 -1 5 C-0.67 3.35 -0.34 1.7 0 0 Z " fill="#43699A" transform="translate(45,0)"/>
<path d="M0 0 C1.125 3.75 1.125 3.75 0 6 C2.97 6 5.94 6 9 6 C9 6.33 9 6.66 9 7 C6.36 7.33 3.72 7.66 1 8 C1.33 9.65 1.66 11.3 2 13 C1.34 13 0.68 13 0 13 C0 12.34 0 11.68 0 11 C-0.99 10.67 -1.98 10.34 -3 10 C-2.21302675 6.58978257 -1.12880057 3.31114834 0 0 Z " fill="#2A4E74" transform="translate(26,77)"/>
<path d="M0 0 C1.4800841 0.11362262 2.95910074 0.24122908 4.4375 0.375 C5.26121094 0.44460938 6.08492187 0.51421875 6.93359375 0.5859375 C7.95646484 0.79089844 7.95646484 0.79089844 9 1 C9.33 1.66 9.66 2.32 10 3 C3.375 6 3.375 6 0 6 C0 4.02 0 2.04 0 0 Z " fill="#609AC6" transform="translate(16,9)"/>
<path d="M0 0 C8.58 0 17.16 0 26 0 C26 0.33 26 0.66 26 1 C24.54263913 1.19491452 23.08405407 1.38069358 21.625 1.5625 C20.81289063 1.66691406 20.00078125 1.77132812 19.1640625 1.87890625 C17 2 17 2 15 1 C15 1.66 15 2.32 15 3 C14.01 3 13.02 3 12 3 C12 2.34 12 1.68 12 1 C6.06 1.495 6.06 1.495 0 2 C0 1.34 0 0.68 0 0 Z " fill="#374F77" transform="translate(43,111)"/>
<path d="M0 0 C0.66 0.66 1.32 1.32 2 2 C1.34 3.32 0.68 4.64 0 6 C-0.66 6 -1.32 6 -2 6 C-2 6.66 -2 7.32 -2 8 C-2.763125 8.28875 -3.52625 8.5775 -4.3125 8.875 C-7.15029308 9.96269013 -7.15029308 9.96269013 -10 12 C-7.75066455 6.93899525 -4.58147862 3.10886049 0 0 Z " fill="#2A416A" transform="translate(110,99)"/>
<path d="M0 0 C2.18816601 4.37633202 2.06618848 7.08222592 1.625 11.75 C1.56828125 12.44738281 1.5115625 13.14476562 1.453125 13.86328125 C1.31232128 15.57639312 1.15754028 17.28834611 1 19 C0.34 18.67 -0.32 18.34 -1 18 C-0.505 9.09 -0.505 9.09 0 0 Z M-4 16 C-3.34 16 -2.68 16 -2 16 C-1.375 17.875 -1.375 17.875 -1 20 C-1.66 20.66 -2.32 21.32 -3 22 C-3.66 21.67 -4.32 21.34 -5 21 C-4.67 19.35 -4.34 17.7 -4 16 Z " fill="#7FE5EF" transform="translate(5,46)"/>
<path d="M0 0 C2.64 0 5.28 0 8 0 C8 1.32 8 2.64 8 4 C8.66 4 9.32 4 10 4 C10.33 4.99 10.66 5.98 11 7 C8.03 7 5.06 7 2 7 C2.33 6.34 2.66 5.68 3 5 C3.99 5 4.98 5 6 5 C5.67 4.01 5.34 3.02 5 2 C3.35 1.67 1.7 1.34 0 1 C0 0.67 0 0.34 0 0 Z " fill="#243E70" transform="translate(51,0)"/>
<path d="M0 0 C0.66 0 1.32 0 2 0 C2 3.3 2 6.6 2 10 C1.34 9.67 0.68 9.34 0 9 C-0.66 9.66 -1.32 10.32 -2 11 C-2.05399736 9.54207116 -2.09279177 8.08357288 -2.125 6.625 C-2.15980469 5.40683594 -2.15980469 5.40683594 -2.1953125 4.1640625 C-2 2 -2 2 0 0 Z " fill="#19244A" transform="translate(123,61)"/>
<path d="M0 0 C1.98 0.99 1.98 0.99 4 2 C4.33 1.67 4.66 1.34 5 1 C7.64 2.98 10.28 4.96 13 7 C12.01 7.495 12.01 7.495 11 8 C8.375 6.5625 8.375 6.5625 6 5 C6.33 5.99 6.66 6.98 7 8 C6.01 8.495 6.01 8.495 5 9 C3 6 3 6 3 3 C2.01 2.67 1.02 2.34 0 2 C0 1.34 0 0.68 0 0 Z " fill="#1B3669" transform="translate(93,0)"/>
<path d="M0 0 C1.32 0 2.64 0 4 0 C4 1.98 4 3.96 4 6 C1.69 6.33 -0.62 6.66 -3 7 C-2.38722388 4.03824877 -1.74627478 2.61941217 0 0 Z " fill="#134281" transform="translate(16,0)"/>
<path d="M0 0 C0.33 0 0.66 0 1 0 C1 2.64 1 5.28 1 8 C-0.98 8.99 -0.98 8.99 -3 10 C-3.33 7.69 -3.66 5.38 -4 3 C-3.01 3 -2.02 3 -1 3 C-0.67 2.01 -0.34 1.02 0 0 Z " fill="#78E2ED" transform="translate(4,38)"/>
<path d="M0 0 C0.66 0 1.32 0 2 0 C2 0.99 2 1.98 2 3 C2.66 3.33 3.32 3.66 4 4 C3.01 4.33 2.02 4.66 1 5 C1 6.32 1 7.64 1 9 C1.66 9.66 2.32 10.32 3 11 C2.01 11 1.02 11 0 11 C0 11.99 0 12.98 0 14 C0.99 14.33 1.98 14.66 3 15 C1.68 15 0.36 15 -1 15 C-1.02685412 12.68756208 -1.04632841 10.3750373 -1.0625 8.0625 C-1.07410156 6.77472656 -1.08570312 5.48695312 -1.09765625 4.16015625 C-1 1 -1 1 0 0 Z " fill="#1E2D5D" transform="translate(121,27)"/>
<path d="M0 0 C0.99 0 1.98 0 3 0 C3 0.66 3 1.32 3 2 C4.65 2 6.3 2 8 2 C8 3.65 8 5.3 8 7 C7.01 7 6.02 7 5 7 C5 6.34 5 5.68 5 5 C3.35 5 1.7 5 0 5 C0 3.33333333 0 1.66666667 0 0 Z " fill="#375486" transform="translate(34,111)"/>
<path d="M0 0 C0.33 0 0.66 0 1 0 C1.25 7.625 1.25 7.625 -1 11 C-1.99 11 -2.98 11 -4 11 C-4 9.02 -4 7.04 -4 5 C-3.01 5 -2.02 5 -1 5 C-0.67 3.35 -0.34 1.7 0 0 Z " fill="#61C8E0" transform="translate(4,30)"/>
<path d="M0 0 C2 1.8125 2 1.8125 4 4 C4 4.99 4 5.98 4 7 C5.65 7.33 7.3 7.66 9 8 C9 8.66 9 9.32 9 10 C9.66 10.33 10.32 10.66 11 11 C9 12 9 12 6.625 11.5625 C2.83058746 9.30392111 1.51509391 6.06282165 0 2 C0 1.34 0 0.68 0 0 Z " fill="#274B76" transform="translate(20,86)"/>
<path d="M0 0 C0.99 0 1.98 0 3 0 C3 3.63 3 7.26 3 11 C2.01 10.67 1.02 10.34 0 10 C0 6.7 0 3.4 0 0 Z " fill="#45A6CF" transform="translate(0,73)"/>
<path d="M0 0 C1.65 0.99 3.3 1.98 5 3 C4.67 3.99 4.34 4.98 4 6 C0.7 6 -2.6 6 -6 6 C-5.67 5.34 -5.34 4.68 -5 4 C-4.34 3.855625 -3.68 3.71125 -3 3.5625 C-2.01 3.2840625 -2.01 3.2840625 -1 3 C-0.67 2.01 -0.34 1.02 0 0 Z " fill="#4C77A7" transform="translate(36,10)"/>
<path d="M0 0 C0.66 0.33 1.32 0.66 2 1 C1.01 2.485 1.01 2.485 0 4 C-0.99 4 -1.98 4 -3 4 C-3.33 6.31 -3.66 8.62 -4 11 C-4.99 11.33 -5.98 11.66 -7 12 C-7 10.02 -7 8.04 -7 6 C-6.34 6 -5.68 6 -5 6 C-4.731875 5.38125 -4.46375 4.7625 -4.1875 4.125 C-3 2 -3 2 0 0 Z " fill="#233661" transform="translate(122,92)"/>
<path d="M0 0 C1.3410477 0.75733274 2.67269781 1.53132736 4 2.3125 C5.11375 2.95638672 5.11375 2.95638672 6.25 3.61328125 C6.8275 4.07089844 7.405 4.52851563 8 5 C8 5.99 8 6.98 8 8 C6.35 8 4.7 8 3 8 C2.67 7.01 2.34 6.02 2 5 C0.50014391 3.33289654 0.50014391 3.33289654 -1 2 C-0.67 1.34 -0.34 0.68 0 0 Z " fill="#1E3363" transform="translate(108,6)"/>
<path d="M0 0 C2.97 0 5.94 0 9 0 C8.34 1.32 7.68 2.64 7 4 C6.34 4 5.68 4 5 4 C4.67 4.66 4.34 5.32 4 6 C4 5.34 4 4.68 4 4 C3.34 4 2.68 4 2 4 C2 3.34 2 2.68 2 2 C1.34 2 0.68 2 0 2 C0 1.34 0 0.68 0 0 Z " fill="#234B82" transform="translate(36,0)"/>
<path d="M0 0 C0.33 0 0.66 0 1 0 C1.28875 0.969375 1.5775 1.93875 1.875 2.9375 C2.64214682 6.10664203 2.64214682 6.10664203 5 7 C5 7.66 5 8.32 5 9 C5.66 9 6.32 9 7 9 C7.33 10.32 7.66 11.64 8 13 C5.6875 12.875 5.6875 12.875 3 12 C0.26935582 7.9511138 -0.34512904 4.83180659 0 0 Z " fill="#1C3966" transform="translate(21,81)"/>
<path d="M0 0 C1.32 0 2.64 0 4 0 C4 2.31 4 4.62 4 7 C2.68 7 1.36 7 0 7 C0 4.69 0 2.38 0 0 Z " fill="#121C46" transform="translate(121,84)"/>
<path d="M0 0 C0 3.51716303 -0.82445585 4.37121748 -3 7 C-2.34 7.33 -1.68 7.66 -1 8 C-1.99 9.98 -2.98 11.96 -4 14 C-4.92089921 10.89196516 -5.47228324 8.22726878 -5 5 C-2.5 2.1875 -2.5 2.1875 0 0 Z " fill="#4890BD" transform="translate(16,16)"/>
<path d="M0 0 C1.98 0 3.96 0 6 0 C5.67 1.65 5.34 3.3 5 5 C3.35 5 1.7 5 0 5 C0 3.35 0 1.7 0 0 Z " fill="#214B88" transform="translate(23,0)"/>
<path d="M0 0 C2.31 0 4.62 0 7 0 C5.625 1.5 5.625 1.5 4 3 C3.34 3 2.68 3 2 3 C2 4.32 2 5.64 2 7 C1.34 7 0.68 7 0 7 C-1.125 2.25 -1.125 2.25 0 0 Z " fill="#364C73" transform="translate(71,111)"/>
<path d="M0 0 C0.639375 0.2475 1.27875 0.495 1.9375 0.75 C2.2675 1.74 2.5975 2.73 2.9375 3.75 C2.2775 4.41 1.6175 5.07 0.9375 5.75 C-0.0525 5.75 -1.0425 5.75 -2.0625 5.75 C-2.7225 4.1 -3.3825 2.45 -4.0625 0.75 C-2.0625 -0.25 -2.0625 -0.25 0 0 Z " fill="#24437A" transform="translate(8.0625,101.25)"/>
<path d="M0 0 C-3.96 1.98 -7.92 3.96 -12 6 C-10 2 -10 2 -8 0 C-2.51428571 -1.25714286 -2.51428571 -1.25714286 0 0 Z " fill="#254675" transform="translate(35,23)"/>
<path d="M0 0 C2 1.1875 2 1.1875 4 3 C4.25 5.6875 4.25 5.6875 4 8 C2.68 8 1.36 8 0 8 C0 5.36 0 2.72 0 0 Z " fill="#2864A2" transform="translate(0,16)"/>
<path d="M0 0 C1.98 0.99 1.98 0.99 4 2 C3.67 3.65 3.34 5.3 3 7 C2.01 7.33 1.02 7.66 0 8 C0 5.36 0 2.72 0 0 Z " fill="#051739" transform="translate(120,16)"/>
<path d="M0 0 C0.33 0.66 0.66 1.32 1 2 C1.66 2 2.32 2 3 2 C3 2.66 3 3.32 3 4 C4.98 3.67 6.96 3.34 9 3 C9.33 3.99 9.66 4.98 10 6 C9.34 6.66 8.68 7.32 8 8 C5.875 7.625 5.875 7.625 4 7 C4 6.34 4 5.68 4 5 C3.01 5 2.02 5 1 5 C0.67 3.35 0.34 1.7 0 0 Z " fill="#2F588F" transform="translate(35,0)"/>
<path d="M0 0 C2.475 0.495 2.475 0.495 5 1 C5 1.66 5 2.32 5 3 C5.66 3.33 6.32 3.66 7 4 C6 5 6 5 3.4375 5.0625 C2.2309375 5.0315625 2.2309375 5.0315625 1 5 C0.67 3.35 0.34 1.7 0 0 Z " fill="#2C5789" transform="translate(46,1)"/>
<path d="M0 0 C1.2065625 0.0309375 1.2065625 0.0309375 2.4375 0.0625 C1.0625 2.125 1.0625 2.125 -1.5625 4.0625 C-4.96310685 4.12113115 -8.21809323 3.64968592 -11.5625 3.0625 C-11.5625 2.7325 -11.5625 2.4025 -11.5625 2.0625 C-9.51171875 1.83463542 -7.4609375 1.60677083 -5.41015625 1.37890625 C-2.80458624 0.93270927 -2.89290947 0.07055877 0 0 Z " fill="#2B4A7E" transform="translate(88.5625,-0.0625)"/>
<path d="M0 0 C3.96 0 7.92 0 12 0 C11.67 0.66 11.34 1.32 11 2 C8.49609375 2.4140625 8.49609375 2.4140625 5.4375 2.625 C4.42558594 2.69976562 3.41367188 2.77453125 2.37109375 2.8515625 C1.58863281 2.90054687 0.80617188 2.94953125 0 3 C0 2.01 0 1.02 0 0 Z " fill="#193260" transform="translate(74,0)"/>
<path d="M0 0 C3.70293685 -0.33663062 5.39534381 -0.47736015 8.375 1.875 C10 4 10 4 10 6 C8 5 6 4 4 3 C3.01 3.495 3.01 3.495 2 4 C1.34 2.68 0.68 1.36 0 0 Z " fill="#2B4C80" transform="translate(95,0)"/>
<path d="M0 0 C3 1 3 1 4 3 C4.039992 4.99960012 4.04346799 7.00047242 4 9 C3.34 8.67 2.68 8.34 2 8 C2 7.34 2 6.68 2 6 C1.34 6 0.68 6 0 6 C0 4.02 0 2.04 0 0 Z " fill="#041747" transform="translate(121,8)"/>
<path d="M0 0 C1.9375 0.3125 1.9375 0.3125 4 1 C4.33 1.99 4.66 2.98 5 4 C0.545 4.495 0.545 4.495 -4 5 C-3.67 4.34 -3.34 3.68 -3 3 C-2.34 3 -1.68 3 -1 3 C-0.67 2.01 -0.34 1.02 0 0 Z " fill="#324F7B" transform="translate(72,2)"/>
<path d="M0 0 C1.140625 1.734375 1.140625 1.734375 2 4 C1.171875 6.140625 1.171875 6.140625 -0.25 8.25 C-0.70890625 8.95640625 -1.1678125 9.6628125 -1.640625 10.390625 C-2.08921875 10.92171875 -2.5378125 11.4528125 -3 12 C-3.66 12 -4.32 12 -5 12 C-4.731875 11.505 -4.46375 11.01 -4.1875 10.5 C-2.56124507 7.0763054 -1.30484829 3.55867715 0 0 Z " fill="#50709B" transform="translate(109,90)"/>
<path d="M0 0 C0.33 0.99 0.66 1.98 1 3 C0.09972412 4.03531726 -0.82093035 5.05294165 -1.75 6.0625 C-2.51570313 6.91521484 -2.51570313 6.91521484 -3.296875 7.78515625 C-5 9 -5 9 -7.203125 8.68359375 C-7.79609375 8.45800781 -8.3890625 8.23242188 -9 8 C-8.21625 7.5875 -7.4325 7.175 -6.625 6.75 C-3.88492228 4.92328152 -3.26664653 3.92303045 -2 1 C-1.34 0.67 -0.68 0.34 0 0 Z " fill="#274571" transform="translate(99,87)"/>
<path d="M0 0 C0.33 0 0.66 0 1 0 C1 3.63 1 7.26 1 11 C1.99 11.33 2.98 11.66 4 12 C2.68 13.32 1.36 14.64 0 16 C0 10.72 0 5.44 0 0 Z " fill="#1B2B5B" transform="translate(120,43)"/>
<path d="M0 0 C0.598125 0.495 1.19625 0.99 1.8125 1.5 C3.97029994 3.28276418 3.97029994 3.28276418 7 3 C7 3.66 7 4.32 7 5 C5.68 5.33 4.36 5.66 3 6 C3 6.99 3 7.98 3 9 C1.35 9 -0.3 9 -2 9 C-0.68 8.67 0.64 8.34 2 8 C1.34 5.36 0.68 2.72 0 0 Z " fill="#3F85BF" transform="translate(2,16)"/>
<path d="M0 0 C0.99 0.33 1.98 0.66 3 1 C2.67 1.66 2.34 2.32 2 3 C2.66 3.33 3.32 3.66 4 4 C4 4.66 4 5.32 4 6 C1.625 5.6875 1.625 5.6875 -1 5 C-1.66 4.01 -2.32 3.02 -3 2 C-2.01 1.34 -1.02 0.68 0 0 Z " fill="#6A93C1" transform="translate(42,9)"/>
<path d="M0 0 C-2.35380297 3.92300495 -4.64464931 4.83857315 -9 6 C-4.625 -2.3125 -4.625 -2.3125 0 0 Z " fill="#3C547F" transform="translate(99,107)"/>
<path d="M0 0 C1.32 0 2.64 0 4 0 C4.33 0.99 4.66 1.98 5 3 C3.625 4.5 3.625 4.5 2 6 C1.34 6 0.68 6 0 6 C0 4.02 0 2.04 0 0 Z " fill="#285996" transform="translate(0,93)"/>
<path d="M0 0 C2.0625 0.4375 2.0625 0.4375 4 1 C2.71937515 2.7074998 1.38232443 4.37373596 0 6 C-0.66 6 -1.32 6 -2 6 C-1.125 1.125 -1.125 1.125 0 0 Z " fill="#86D4E1" transform="translate(43,32)"/>
<path d="M0 0 C1.65 0 3.3 0 5 0 C5 1.65 5 3.3 5 5 C3.35 4.67 1.7 4.34 0 4 C0 2.68 0 1.36 0 0 Z " fill="#3D669B" transform="translate(59,0)"/>
<path d="M0 0 C2.5 -0.375 2.5 -0.375 5 0 C5.66 0.99 6.32 1.98 7 3 C4.03 3 1.06 3 -2 3 C-1.34 2.01 -0.68 1.02 0 0 Z " fill="#172D5F" transform="translate(15,115)"/>
<path d="M0 0 C-0.7425 0.268125 -1.485 0.53625 -2.25 0.8125 C-4.86636554 1.94229421 -6.80187111 3.20893202 -9 5 C-8.67 3.02 -8.34 1.04 -8 -1 C-4.59745511 -2.2151946 -3.06748874 -1.86240388 0 0 Z " fill="#1F335D" transform="translate(101,113)"/>
<path d="M0 0 C0.99 0 1.98 0 3 0 C3 2.31 3 4.62 3 7 C2.01 7 1.02 7 0 7 C0 4.69 0 2.38 0 0 Z " fill="#4295C4" transform="translate(0,28)"/>
<path d="M0 0 C2.31 0.33 4.62 0.66 7 1 C4.03312999 2.64826111 1.34373475 3.44271087 -2 4 C-1.34 2.68 -0.68 1.36 0 0 Z " fill="#416A9C" transform="translate(39,7)"/>
<path d="M0 0 C3 1 3 1 5 4 C4.625 6.1875 4.625 6.1875 4 8 C4 7.34 4 6.68 4 6 C2.68 5.34 1.36 4.68 0 4 C0 2.68 0 1.36 0 0 Z " fill="#172B60" transform="translate(120,3)"/>
<path d="M0 0 C2.25 0.25 2.25 0.25 4 1 C4 1.99 4 2.98 4 4 C1.36 4 -1.28 4 -4 4 C-2.25 1.9375 -2.25 1.9375 0 0 Z " fill="#334771" transform="translate(97,108)"/>
<path d="M0 0 C0.66 0 1.32 0 2 0 C2.625 1.875 2.625 1.875 3 4 C2.34 4.66 1.68 5.32 1 6 C0.34 5.67 -0.32 5.34 -1 5 C-0.67 3.35 -0.34 1.7 0 0 Z M3 2 C5 3 5 3 5 3 Z " fill="#74E0E9" transform="translate(1,62)"/>
<path d="M0 0 C0.66 0 1.32 0 2 0 C1.71125 0.680625 1.4225 1.36125 1.125 2.0625 C-0.12597355 5.32893093 -1.07447955 8.62846123 -2 12 C-2.33 12 -2.66 12 -3 12 C-3.29162929 7.04230204 -3.12940055 3.97193147 0 0 Z " fill="#3A6895" transform="translate(21,23)"/>
<path d="M0 0 C1.98 0 3.96 0 6 0 C6 0.99 6 1.98 6 3 C4.02 3 2.04 3 0 3 C0 2.01 0 1.02 0 0 Z " fill="#0F498B" transform="translate(0,3)"/>
<path d="M0 0 C-0.33 0.66 -0.66 1.32 -1 2 C-3.32156597 2.40729228 -5.6568787 2.74438677 -8 3 C-8.33 2.34 -8.66 1.68 -9 1 C-6.04335481 -0.4783226 -3.25770263 -0.06032783 0 0 Z " fill="#2A487D" transform="translate(17,108)"/>
<path d="M0 0 C1.65 0 3.3 0 5 0 C4.67 1.65 4.34 3.3 4 5 C3.34 5 2.68 5 2 5 C2 4.01 2 3.02 2 2 C1.34 2 0.68 2 0 2 C0 1.34 0 0.68 0 0 Z " fill="#5E85B3" transform="translate(24,106)"/>
<path d="M0 0 C0.99 0.33 1.98 0.66 3 1 C3 2.65 3 4.3 3 6 C2.01 6 1.02 6 0 6 C0 4.02 0 2.04 0 0 Z " fill="#5CC7DD" transform="translate(0,67)"/>
<path d="M0 0 C2.5625 2.25 2.5625 2.25 5 5 C4.8125 7.3125 4.8125 7.3125 4 9 C0 3.375 0 3.375 0 0 Z " fill="#3A5781" transform="translate(104,20)"/>
<path d="M0 0 C2.8125 -0.25 2.8125 -0.25 6 0 C7.875 2 7.875 2 9 4 C6.03 3.01 3.06 2.02 0 1 C0 0.67 0 0.34 0 0 Z " fill="#354C76" transform="translate(96,11)"/>
<path d="M0 0 C0.99 0.33 1.98 0.66 3 1 C3 1.99 3 2.98 3 4 C1.35 4.66 -0.3 5.32 -2 6 C-1.34 4.02 -0.68 2.04 0 0 Z " fill="#607DA2" transform="translate(54,1)"/>
</svg>
